<?xml version="1.0" encoding="utf-8"?>
<!-- Generator: Adobe Illustrator 27.6.1, SVG Export Plug-In . SVG Version: 6.00 Build 0)  -->
<svg version="1.1" id="Capa_1" xmlns="http://www.w3.org/2000/svg" xmlns:xlink="http://www.w3.org/1999/xlink" x="0px" y="0px"
	 viewBox="0 0 645.8 141.7" style="enable-background:new 0 0 645.8 141.7;" xml:space="preserve">
<style type="text/css">
	.st0{fill:#A28C6E;}
	.st1{fill:#FFFFFF;}
	.st2{clip-path:url(#SVGID_00000053545895868876802920000003068728730648969875_);}
</style>
<g>
	<g>
		<g>
			<g>
				<g>
					<path class="st0" d="M439.4,136.1c-2,0.7-4.4,1-7,1c-3.9,0-6.9-0.7-9-2.1c-2.1-1.4-3.5-3.7-4-7l-1.3-8.4
						c-0.6-3.9-1.3-6.9-2.3-8.9c-1-2-2.4-3-4.4-3h-3.8V127c0,2.1,0.2,3.6,0.5,4.6c0.3,1,0.9,1.6,1.7,2c0.8,0.4,2.1,0.6,3.9,0.7v1.7
						c-3.3-0.2-8-0.2-14-0.2c-6.8,0-11.8,0.1-15,0.2v-1.7c1.8-0.1,3.1-0.3,3.9-0.7c0.8-0.4,1.4-1,1.6-2c0.3-1,0.4-2.5,0.4-4.6V85.4
						c0-2.1-0.2-3.6-0.5-4.6c-0.3-1-0.9-1.6-1.7-2c-0.8-0.4-2.1-0.6-3.9-0.7v-1.7c3.2,0.2,8,0.2,14.5,0.2c2.3,0,4.8,0,7.7-0.1
						c2.8-0.1,4.8-0.1,5.8-0.1c8.5,0,14.9,1.2,19,3.6c4.2,2.4,6.2,6.1,6.2,11c0,4.2-1.6,7.8-4.7,10.8c-3.1,3-8.4,4.8-15.8,5.5
						c5.7,0.3,10,1.4,13,3.1c2.9,1.8,4.7,4.4,5.4,7.8l1.8,8.7c0.4,2,0.9,3.5,1.5,4.3c0.6,0.8,1.3,1.2,2.3,1.2c1,0,1.9-0.4,2.6-1.1
						l1.1,1.1C443.3,134.2,441.5,135.4,439.4,136.1z M416.3,104.3c1.5-1.2,2.6-2.8,3.1-4.8c0.6-2,0.8-4.5,0.8-7.3
						c0-4.6-0.6-8.1-1.9-10.4c-1.3-2.4-3.3-3.5-6.2-3.5c-1.3,0-2.2,0.2-2.9,0.6c-0.6,0.4-1.1,1.1-1.3,2.1c-0.2,1-0.3,2.5-0.3,4.5
						v20.7h2.3C412.7,106.1,414.8,105.5,416.3,104.3z"/>
				</g>
			</g>
			<g>
				<g>
					<path class="st0" d="M460.7,113c0,5.4,0.9,9.2,2.8,11.5c1.9,2.3,4.2,3.4,6.9,3.4c4.1,0,7.5-1.9,10.2-5.6l1.4,0.5
						c-0.8,2.5-1.9,4.8-3.4,6.9c-1.5,2.1-3.4,3.9-5.8,5.3c-2.4,1.4-5.1,2-8.3,2c-5.9,0-10.6-1.8-14.1-5.5c-3.5-3.6-5.3-9.5-5.3-17.4
						c0-5.2,0.9-9.5,2.8-12.9c1.9-3.4,4.4-6,7.6-7.6c3.2-1.6,7-2.5,11.2-2.5c10.6,0,15.9,6.3,15.9,18.8h-21.7
						C460.8,110.6,460.7,111.7,460.7,113z M469.3,97.4c-0.7-2.9-1.8-4.3-3.3-4.3c-1.5,0-2.8,1.2-3.7,3.6c-0.9,2.4-1.5,6.3-1.8,11.6
						h9.7C470.3,103.9,470,100.3,469.3,97.4z"/>
				</g>
			</g>
			<path class="st0" d="M491.5,127.7c1,2.3,2.2,4.1,3.8,5.4c1.5,1.3,3.3,1.9,5.3,1.9c1.4,0,2.6-0.4,3.5-1.2c0.9-0.8,1.4-1.9,1.4-3.4
				c0-1.6-0.3-3-1-4.2c-0.6-1.2-1.4-2.4-2.4-3.3c-0.9-1-2.4-2.4-4.5-4.2c-2.4-2.2-4.2-3.9-5.4-5.2c-1.2-1.3-2.3-2.8-3.1-4.5
				c-0.9-1.7-1.3-3.6-1.3-5.7c0-2.4,0.7-4.5,2.2-6.4c1.4-1.8,3.4-3.2,5.8-4.2c2.4-1,5-1.5,7.8-1.5c2.2,0,4.3,0.2,6.2,0.7
				c1.9,0.5,3.4,1,4.4,1.6c0.6,0.3,1.1,0.5,1.5,0.5c1.1,0,1.8-0.9,2.1-2.7h1.7c-0.2,2.9-0.3,8-0.3,15.1h-1.7
				c-0.4-3.7-1.5-6.8-3.1-9.3c-1.7-2.6-4.1-3.8-7.2-3.8c-1.4,0-2.6,0.4-3.5,1.3c-0.9,0.8-1.4,2-1.4,3.4c0,1.9,0.6,3.5,1.9,5
				c1.3,1.4,2.7,2.8,4.4,4.1c1.7,1.3,3,2.3,3.7,3c2.1,1.7,3.7,3.2,5,4.5c1.2,1.3,2.2,2.7,3,4.3c0.8,1.6,1.1,3.4,1.1,5.4
				c0,2.5-0.8,4.7-2.3,6.7c-1.5,2-3.6,3.5-6.1,4.6c-2.6,1.1-5.4,1.6-8.5,1.6c-3.5,0-6.4-0.7-8.6-2.1c-1.8-0.9-3.2-1.4-4.2-1.4
				c-1.1,0-1.8,1-2.3,2.9h-1.7c0.2-3.2,0.3-8.8,0.3-16.8h1.7C489.9,122.7,490.5,125.4,491.5,127.7z"/>
			<g>
				<g>
					<path class="st0" d="M563.6,96.6c3.7,3.6,5.6,9.5,5.6,17.6c0,8.1-1.9,13.9-5.6,17.5c-3.7,3.6-9.1,5.4-15.9,5.4
						c-6.9,0-12.2-1.8-16-5.4c-3.7-3.6-5.6-9.4-5.6-17.5c0-8.1,1.9-14,5.6-17.6c3.8-3.6,9.1-5.4,16-5.4
						C554.5,91.2,559.8,93,563.6,96.6z M543.3,98.1c-1.1,3.5-1.6,8.9-1.6,16.1c0,7.2,0.5,12.5,1.6,16c1.1,3.5,2.5,5.2,4.3,5.2
						c1.8,0,3.2-1.7,4.3-5.2c1.1-3.5,1.6-8.8,1.6-16c0-7.2-0.5-12.5-1.6-16.1c-1.1-3.5-2.5-5.3-4.3-5.3
						C545.9,92.9,544.4,94.6,543.3,98.1z"/>
				</g>
			</g>
			<g>
				<g>
					<path class="st0" d="M603.8,91.2c2.7,0,4.7,0.8,5.9,2.5c1.2,1.7,1.8,3.7,1.8,6c0,2.5-0.7,4.5-2.1,6c-1.4,1.5-3.3,2.2-5.6,2.2
						c-2.4,0-4.3-0.5-5.6-1.6c-1.3-1.1-1.9-2.5-1.9-4.4c0-3.3,1.4-5.9,4.3-7.8c-1,0-1.9,0.2-2.7,0.6c-1.4,0.6-2.6,1.6-3.5,3
						c-0.9,1.4-1.4,2.9-1.4,4.5v25.2c0,1.8,0.2,3.2,0.7,4.2c0.5,1,1.3,1.7,2.3,2.1s2.4,0.6,4.2,0.6v1.8c-6.9-0.2-11.4-0.3-13.6-0.3
						c-2.1,0-6.6,0.1-13.4,0.3v-1.8c1.2,0,2.1-0.2,2.8-0.5c0.7-0.4,1.2-1,1.5-1.8c0.3-0.9,0.5-2.1,0.5-3.6v-26.6
						c0-2.6-0.4-4.5-1.1-5.6c-0.7-1.2-1.9-1.7-3.6-1.7v-1.8c1.8,0.2,3.5,0.2,5.2,0.2c5.8,0,10.7-0.4,14.6-1.1v6
						C595.1,93.3,598.8,91.2,603.8,91.2z"/>
				</g>
			</g>
			<g>
				<g>
					<path class="st0" d="M640.8,92.4v1.7h-8.2v34.8c0,1.1,0.2,1.9,0.6,2.3c0.4,0.5,1,0.7,2,0.7c0.7,0,1.4-0.2,2.3-0.6
						c0.8-0.4,1.6-1,2.3-1.9l1.3,1c-2.6,4.4-6.5,6.6-11.9,6.6c-3.9,0-6.7-1-8.6-2.9c-1.1-1.1-1.9-2.6-2.3-4.3
						c-0.4-1.7-0.6-4.2-0.6-7.3V94.1h-6.4v-1.7h6.4v-10c3,0,5.8-0.3,8.2-0.9c2.4-0.6,4.7-1.5,6.9-2.8v13.7H640.8z"/>
				</g>
			</g>
		</g>
	</g>
	<g>
		<g>
			<g>
				<g>
					<path class="st0" d="M25.4,78.8c-0.9,0.4-1.5,1-1.9,2c-0.3,1-0.5,2.5-0.5,4.6v43.3c0,1.6,0.1,2.7,0.3,3.5
						c0.2,0.7,0.6,1.2,1.2,1.5c0.6,0.2,1.5,0.4,2.8,0.4h2.8c1.9,0,4.1-1,6.4-3c2.3-2,4.4-4.6,6.2-7.8c1.8-3.2,3.1-6.6,3.7-10h1.9
						c-0.2,2-0.2,4.6-0.2,7.7c0,6.1,0.2,11.1,0.6,15c-3.8-0.2-10.2-0.2-19.2-0.2c-13.1,0-22.9,0.1-29.4,0.2v-1.7
						c1.8-0.1,3.1-0.3,3.9-0.7c0.8-0.4,1.4-1,1.6-2c0.3-1,0.4-2.5,0.4-4.6V85.4c0-2.1-0.2-3.6-0.5-4.6c-0.3-1-0.9-1.6-1.7-2
						c-0.8-0.4-2.1-0.6-3.9-0.7v-1.7c3.2,0.2,8.2,0.2,15,0.2c6.4,0,11.4-0.1,14.8-0.2v1.7C27.8,78.3,26.3,78.5,25.4,78.8z"/>
				</g>
			</g>
			<g>
				<g>
					<path class="st0" d="M71.5,131.8c0.3,0.9,0.8,1.5,1.5,1.8c0.7,0.4,1.6,0.5,2.8,0.5v1.8c-6-0.2-10-0.3-11.9-0.3
						c-1.9,0-6.1,0.1-12.6,0.3v-1.8c1.2,0,2.1-0.2,2.8-0.5c0.7-0.4,1.2-1,1.5-1.8c0.3-0.9,0.5-2.1,0.5-3.6V80.4
						c0-2.6-0.4-4.5-1.1-5.6C54.2,73.6,53,73,51.3,73v-1.8c1.7,0.2,3.5,0.2,5.2,0.2c5.9,0,10.7-0.4,14.6-1.2v57.9
						C71.1,129.7,71.2,130.9,71.5,131.8z"/>
				</g>
			</g>
			<g>
				<g>
					<path class="st0" d="M99.7,95c-0.9-1.4-2.5-2.1-4.9-2.1c-0.7,0-1.5,0.1-2.3,0.4c-0.8,0.3-1.5,0.6-2.2,1
						c3.7,1.4,5.6,3.9,5.6,7.6c0,1.3-0.3,2.5-1,3.6c-0.7,1.1-1.6,1.9-2.8,2.5c-1.2,0.6-2.6,0.9-4.2,0.9c-1.4,0-2.6-0.3-3.6-1
						c-1-0.6-1.8-1.5-2.4-2.6c-0.6-1.1-0.9-2.4-0.9-3.7c0-1.7,0.5-3.2,1.4-4.5c0.9-1.3,2.2-2.4,3.8-3.2c3.5-1.8,8-2.7,13.4-2.7
						c3.2,0,5.9,0.3,8.1,0.9c2.2,0.6,4.1,1.7,5.6,3.3c1.1,1.1,1.8,2.6,2.2,4.4c0.4,1.8,0.6,4.2,0.6,7.4v22.5c0,1.3,0.1,2.3,0.3,2.8
						c0.2,0.5,0.5,0.8,1,0.8c0.4,0,0.8-0.1,1.2-0.3c0.4-0.2,0.8-0.5,1.4-0.9l0.8,1.4c-1.3,1.1-2.8,1.9-4.6,2.4
						c-1.7,0.5-3.9,0.7-6.3,0.7c-3,0-5.1-0.6-6.5-1.8c-1.4-1.2-2.1-2.7-2.2-4.6c-1.2,1.9-2.8,3.5-5,4.6c-2.1,1.1-4.5,1.7-7,1.7
						c-3.3,0-5.9-0.9-7.8-2.6c-1.9-1.7-2.8-4.1-2.8-7c0-2.9,0.9-5.3,2.6-7.2c1.7-1.9,4.4-3.5,8.1-4.7c3-1.1,5.2-1.9,6.6-2.5
						c1.4-0.6,2.6-1.4,3.6-2.2c1-0.9,1.5-1.9,1.5-3.1v-7.5C101.1,98,100.6,96.4,99.7,95z M97.8,114.4c-2.7,2.7-4.1,5.8-4.1,9.5
						c0,4,1.4,5.9,4.3,5.9c1.2,0,2.2-0.5,3.1-1.4v-17.7C100.7,111.4,99.6,112.6,97.8,114.4z"/>
				</g>
			</g>
			<g>
				<g>
					<path class="st0" d="M161.2,96.6c3.7,3.6,5.6,9.5,5.6,17.6c0,8.1-1.9,13.9-5.6,17.5c-3.7,3.6-9.1,5.4-15.9,5.4
						c-6.9,0-12.2-1.8-16-5.4c-3.7-3.6-5.6-9.4-5.6-17.5c0-8.1,1.9-14,5.6-17.6c3.8-3.6,9.1-5.4,16-5.4
						C152.1,91.2,157.4,93,161.2,96.6z M140.9,98.1c-1.1,3.5-1.6,8.9-1.6,16.1c0,7.2,0.5,12.5,1.6,16c1.1,3.5,2.5,5.2,4.3,5.2
						c1.8,0,3.2-1.7,4.3-5.2c1.1-3.5,1.6-8.8,1.6-16c0-7.2-0.5-12.5-1.6-16.1c-1.1-3.5-2.5-5.3-4.3-5.3
						C143.4,92.9,142,94.6,140.9,98.1z"/>
				</g>
			</g>
			<g>
				<g>
					<path class="st0" d="M215,78.8c-0.9,0.4-1.5,1-1.9,2c-0.3,1-0.5,2.5-0.5,4.6v43.3c0,1.6,0.1,2.7,0.3,3.5
						c0.2,0.7,0.6,1.2,1.2,1.5c0.6,0.2,1.5,0.4,2.8,0.4h2.8c1.9,0,4.1-1,6.4-3c2.3-2,4.4-4.6,6.2-7.8c1.8-3.2,3.1-6.6,3.7-10h1.9
						c-0.2,2-0.2,4.6-0.2,7.7c0,6.1,0.2,11.1,0.6,15c-3.8-0.2-10.2-0.2-19.2-0.2c-13.1,0-22.9,0.1-29.4,0.2v-1.7
						c1.8-0.1,3.1-0.3,3.9-0.7c0.8-0.4,1.4-1,1.6-2c0.3-1,0.4-2.5,0.4-4.6V85.4c0-2.1-0.2-3.6-0.5-4.6c-0.3-1-0.9-1.6-1.7-2
						c-0.8-0.4-2.1-0.6-3.9-0.7v-1.7c3.2,0.2,8.2,0.2,15,0.2c6.4,0,11.4-0.1,14.8-0.2v1.7C217.4,78.3,215.9,78.5,215,78.8z"/>
				</g>
			</g>
			<g>
				<g>
					<path class="st0" d="M261.2,131.8c0.3,0.9,0.8,1.5,1.5,1.8c0.7,0.4,1.6,0.5,2.8,0.5v1.8c-6-0.2-10-0.3-11.9-0.3
						c-1.9,0-6.1,0.1-12.6,0.3v-1.8c1.2,0,2.1-0.2,2.8-0.5c0.7-0.4,1.2-1,1.5-1.8c0.3-0.9,0.5-2.1,0.5-3.6V80.4
						c0-2.6-0.4-4.5-1.1-5.6c-0.7-1.2-1.9-1.7-3.6-1.7v-1.8c1.7,0.2,3.5,0.2,5.2,0.2c5.9,0,10.7-0.4,14.6-1.2v57.9
						C260.7,129.7,260.9,130.9,261.2,131.8z"/>
				</g>
			</g>
			<g>
				<g>
					<path class="st0" d="M289.4,95c-0.9-1.4-2.5-2.1-4.9-2.1c-0.7,0-1.5,0.1-2.3,0.4c-0.8,0.3-1.5,0.6-2.2,1
						c3.7,1.4,5.6,3.9,5.6,7.6c0,1.3-0.3,2.5-1,3.6c-0.7,1.1-1.6,1.9-2.8,2.5c-1.2,0.6-2.6,0.9-4.2,0.9c-1.4,0-2.6-0.3-3.6-1
						c-1-0.6-1.8-1.5-2.4-2.6c-0.6-1.1-0.9-2.4-0.9-3.7c0-1.7,0.5-3.2,1.4-4.5c0.9-1.3,2.2-2.4,3.8-3.2c3.5-1.8,8-2.7,13.4-2.7
						c3.2,0,5.9,0.3,8.1,0.9c2.2,0.6,4.1,1.7,5.6,3.3c1.1,1.1,1.8,2.6,2.2,4.4c0.4,1.8,0.6,4.2,0.6,7.4v22.5c0,1.3,0.1,2.3,0.3,2.8
						c0.2,0.5,0.5,0.8,1,0.8c0.4,0,0.8-0.1,1.2-0.3c0.4-0.2,0.8-0.5,1.4-0.9l0.8,1.4c-1.3,1.1-2.8,1.9-4.6,2.4
						c-1.7,0.5-3.9,0.7-6.3,0.7c-3,0-5.1-0.6-6.5-1.8c-1.4-1.2-2.1-2.7-2.2-4.6c-1.2,1.9-2.8,3.5-5,4.6c-2.1,1.1-4.5,1.7-7,1.7
						c-3.3,0-5.9-0.9-7.8-2.6c-1.9-1.7-2.8-4.1-2.8-7c0-2.9,0.9-5.3,2.6-7.2c1.7-1.9,4.4-3.5,8.1-4.7c3-1.1,5.2-1.9,6.6-2.5
						c1.4-0.6,2.6-1.4,3.6-2.2c1-0.9,1.5-1.9,1.5-3.1v-7.5C290.7,98,290.3,96.4,289.4,95z M287.4,114.4c-2.7,2.7-4.1,5.8-4.1,9.5
						c0,4,1.4,5.9,4.3,5.9c1.2,0,2.2-0.5,3.1-1.4v-17.7C290.3,111.4,289.2,112.6,287.4,114.4z"/>
				</g>
			</g>
			<g>
				<g>
					<path class="st0" d="M350.8,96.6c3.7,3.6,5.6,9.5,5.6,17.6c0,8.1-1.9,13.9-5.6,17.5c-3.7,3.6-9.1,5.4-15.9,5.4
						c-6.9,0-12.2-1.8-16-5.4c-3.7-3.6-5.6-9.4-5.6-17.5c0-8.1,1.9-14,5.6-17.6c3.8-3.6,9.1-5.4,16-5.4S347,93,350.8,96.6z
						 M330.5,98.1c-1.1,3.5-1.6,8.9-1.6,16.1c0,7.2,0.5,12.5,1.6,16c1.1,3.5,2.5,5.2,4.3,5.2c1.8,0,3.2-1.7,4.3-5.2
						c1.1-3.5,1.6-8.8,1.6-16c0-7.2-0.5-12.5-1.6-16.1c-1.1-3.5-2.5-5.3-4.3-5.3C333,92.9,331.6,94.6,330.5,98.1z"/>
				</g>
			</g>
		</g>
	</g>
	<path class="st1" d="M645.2,100.7L645.2,100.7c-0.3-0.3-0.6-0.4-1-0.3c-0.3,0.1-0.6,0.3-0.9,0.7c-1.4,1.8-3.6,4-6.5,6.6
		c-2.9,2.6-6.1,5-9.5,7.2c-3.4,2.2-6.8,3.9-10.1,5.1c-3.1,1.1-5.8,1.4-8,0.8c0.8-1.7,1.9-4.2,3.3-7.5c1.5-3.6,3.1-7.2,4.9-10.9
		c1.8-3.7,3.7-7,5.5-10.1c1.8-3,3.5-4.9,4.8-5.6c0.4-0.2,0.7-0.4,0.8-0.7c0.1-0.3,0.1-0.6-0.1-1c-0.4-0.7-1.1-0.9-1.9-0.6
		c-1.6,0.9-3.4,3-5.4,6.1c-1.9,3.1-3.9,6.5-5.7,10.2c-1.9,3.6-3.6,7.3-5.2,11l-3.4,7.8c-1.6-1-2.7-2.2-3.3-3.7
		c-0.7-1.6-1.1-3.4-1.2-5.3c-0.1-1.9,0-3.9,0.5-5.8c0.5-2,0.9-3.8,1.4-5.3c0.4-1.1,0.5-2,0.2-2.6c-0.2-0.5-0.7-1-1.7-0.8
		c-0.7,0.1-1.5,0.6-2.2,1.5c-0.7,0.8-1.3,2-1.7,3.6c0,0.1-0.1,0.2-0.1,0.3l0,0.1c-0.5,0.5-1.4,1.4-2.6,2.7c-1.7,1.8-3.8,3.8-6.3,6.1
		c-2.4,2.2-4.9,4.4-7.5,6.4c-2.5,2-4.5,3.2-6,3.7c-0.8,0.2-1.4,0.2-1.7-0.1c-0.3-0.2-0.4-0.5-0.5-0.9c-0.2-1.2-0.1-2.7,0.2-4.4
		c0.3-1.8,0.7-3.6,1.2-5.3c0.5-1.9,0.5-3.2,0.1-4c-0.2-0.3-0.4-0.5-0.7-0.6c-0.6-0.2-1.5,0.1-2.6,0.8c-1.6,0.9-4.2,3.2-7.8,6.8
		c-1.8,1.7-4,3.6-6.3,5.5c-2.4,2-4.6,3.6-6.7,4.7c-1.7,1-2.9,1.1-3.6,0.5c-0.7-0.6-1.1-1.7-1-3.1c0.1-1.5,0.7-3.4,1.6-5.5
		c1-2.2,2.3-4.2,4.1-6.1c1.8-1.9,3.9-3.6,6.4-5c2.5-1.4,5.3-2.2,8.5-2.3c0.8-0.2,1.2-0.7,1.1-1.6c-0.1-0.6-0.4-1.4-1.9-1.6
		c-3.8-0.7-7.3-0.3-10.3,1.2c-3,1.4-5.6,3.4-7.7,5.9c-0.7,0.8-1.3,1.7-2,2.7c-2.9,2.8-6.2,5.7-9.7,8.7c-3.8,3.2-7.8,6.4-11.9,9.3
		c-4.1,2.9-8,5.1-11.5,6.4c-3.5,1.3-6.5,1.5-9,0.7c-2.4-0.8-3.9-3.3-4.4-7.4c-0.5-3.7-0.5-7.8-0.1-12.3c0.4-4.4,1-8.6,1.6-12.4
		c4.1-3.3,9-7.4,14.5-12.1c5.6-4.7,11.2-9.9,16.9-15.5c5.7-5.5,11.1-11.5,16.2-17.6c5.1-6.1,9.3-12.4,12.6-18.6
		c3.4-6.6,5.4-12.6,6.1-17.7c0.7-5.2,0.2-9.4-1.2-12.5c-1.5-3.2-3.8-5.3-7-6.4c-3.2-1.1-6.8-0.8-10.9,0.7c-4,1.5-8.4,4.4-12.8,8.7
		c-4.5,4.3-8.8,10.2-13,17.6c-2.1,3.8-4.3,8.2-6.7,13.3c-2.4,5.1-4.7,10.6-6.9,16.3c-2.2,5.7-4.3,11.8-6.2,18
		c-1.9,6.2-3.6,12.3-4.9,18.2c-1.3,5.9-2.2,11.6-2.8,17c-0.6,5.4-0.6,10.4,0.1,14.7c0.9,5.3,2.9,8.7,5.8,10.1
		c2.9,1.5,6.4,1.7,10.2,0.6c3.8-1,8.1-3.1,12.5-6.1c4.4-3,8.8-6.2,12.9-9.5c2.2-1.8,4.3-3.6,6.4-5.5c-0.7,2.4-1,4.6-0.9,6.5
		c0.1,2.4,1,4.1,2.5,5.1c1.5,1,3.8,0.8,6.7-0.7c2.2-1,4.6-2.6,7-4.7c2.4-2.1,4.6-4,6.5-5.8c2.5-2.5,4.3-4,5.1-4.3
		c0.4-0.1,0.6-0.2,0.8-0.1c0.2,0.1,0.2,0.4,0.2,0.5c0.1,0.8-0.1,2.1-0.5,3.7c-0.4,1.7-0.6,3.3-0.6,4.7c0,1.5,0.4,2.7,1.3,3.4
		c0.9,0.8,2.6,0.7,5.2-0.4c2.1-0.8,4.4-2.2,6.9-4.1c2.5-1.9,4.9-4,7.2-6.1c2.3-2.1,4.4-4.1,6.3-5.9l0.5-0.5c0,0.3-0.1,0.6-0.1,0.9
		c-0.2,2.2-0.1,4.3,0.3,6.3c0.4,2.1,1.2,3.9,2.5,5.6c1.2,1.6,2.9,2.8,5,3.6c-1.1,2.6-2.4,5.5-3.8,8.8c-1.5,3.3-3.2,6.1-5.1,8.3
		c-0.5,0.5-0.8,0.9-0.7,1.3c0,0.2,0.1,0.4,0.3,0.5c0.2,0.1,0.4,0.2,0.6,0.2c0.3,0,0.6-0.1,1-0.4c1.5-0.8,3.1-2.9,4.9-6.5
		c1.7-3.4,3.5-7.3,5.4-11.7c3,0.6,6.2,0.2,9.7-1c3.6-1.3,7.2-3.1,10.7-5.3c3.5-2.2,6.8-4.6,9.8-7.2c3-2.6,5.4-5,7.2-7
		C646,101.9,645.9,101.3,645.2,100.7z M502.5,97.1c1-4.9,2.3-10.2,3.9-15.8c1.7-5.9,3.6-12,5.7-18c2.1-6,4.5-11.9,7-17.6
		c2.5-5.7,5.1-11,7.7-15.7c4-7.2,8-13,12.1-17.2c4-4.2,7.8-7.1,11.3-8.7c3.4-1.5,6.4-1.8,9-1c2.6,0.9,4.4,2.7,5.5,5.4
		c1.1,2.8,1.4,6.5,0.8,11.1c-0.6,4.6-2.5,9.9-5.4,15.8c-3.1,6-7.2,12.1-12.1,18c-4.9,5.9-10.2,11.7-15.7,17.1
		c-5.5,5.4-11,10.5-16.4,15.1C510.5,90.4,506.1,94.1,502.5,97.1z"/>
	<g>
		<defs>
			<rect id="SVGID_1_" x="484.1" y="89.3" width="38.4" height="34.9"/>
		</defs>
		<clipPath id="SVGID_00000107570910083977632290000012209380796464537504_">
			<use xlink:href="#SVGID_1_"  style="overflow:visible;"/>
		</clipPath>
		<g style="clip-path:url(#SVGID_00000107570910083977632290000012209380796464537504_);">
			<g>
				<path class="st0" d="M491.7,127.7c1,2.3,2.2,4.1,3.8,5.4c1.5,1.3,3.3,1.9,5.3,1.9c1.4,0,2.6-0.4,3.5-1.2
					c0.9-0.8,1.4-1.9,1.4-3.4c0-1.6-0.3-3-1-4.2c-0.6-1.2-1.4-2.4-2.4-3.3c-0.9-1-2.4-2.4-4.5-4.2c-2.4-2.2-4.2-3.9-5.4-5.2
					c-1.2-1.3-2.3-2.8-3.1-4.5c-0.9-1.7-1.3-3.6-1.3-5.7c0-2.4,0.7-4.5,2.2-6.4c1.4-1.8,3.4-3.2,5.8-4.2c2.4-1,5-1.5,7.8-1.5
					c2.2,0,4.3,0.2,6.2,0.7c1.9,0.5,3.4,1,4.4,1.6c0.6,0.3,1.1,0.5,1.5,0.5c1.1,0,1.8-0.9,2.1-2.7h1.7c-0.2,2.9-0.3,8-0.3,15.1h-1.7
					c-0.4-3.7-1.5-6.8-3.1-9.3c-1.7-2.6-4.1-3.8-7.2-3.8c-1.4,0-2.6,0.4-3.5,1.3c-0.9,0.8-1.4,2-1.4,3.4c0,1.9,0.6,3.5,1.9,5
					c1.3,1.4,2.7,2.8,4.4,4.1c1.7,1.3,3,2.3,3.7,3c2.1,1.7,3.7,3.2,5,4.5c1.2,1.3,2.2,2.7,3,4.3c0.8,1.6,1.1,3.4,1.1,5.4
					c0,2.5-0.8,4.7-2.3,6.7c-1.5,2-3.6,3.5-6.1,4.6c-2.6,1.1-5.4,1.6-8.5,1.6c-3.5,0-6.4-0.7-8.6-2.1c-1.8-0.9-3.2-1.4-4.2-1.4
					c-1.1,0-1.8,1-2.3,2.9h-1.7c0.2-3.2,0.3-8.8,0.3-16.8h1.7C490,122.7,490.7,125.4,491.7,127.7z"/>
			</g>
		</g>
	</g>
</g>
</svg>
