<?xml version="1.0" encoding="UTF-8"?>
<svg width="215px" height="67px" viewBox="0 0 215 67" version="1.1" xmlns="http://www.w3.org/2000/svg" xmlns:xlink="http://www.w3.org/1999/xlink">
    <!-- Generator: Sketch 43.2 (39069) - http://www.bohemiancoding.com/sketch -->
    <title>Page 1</title>
    <desc>Created with Sketch.</desc>
    <defs>
        <polygon id="path-1" points="26.4528712 42.7642099 0 42.7642099 0 1.03548783 26.4528712 1.03548783"></polygon>
        <polygon id="path-3" points="54.0914988 0.430017889 0 0.430017889 0 10.5285506 54.0914988 10.5285506 54.0914988 0.430017889"></polygon>
        <polygon id="path-5" points="0 0.494520572 0 1.68241529 1.18765714 1.68241529 1.18765714 0.494520572 0 0.494520572"></polygon>
        <polygon id="path-7" points="0 8.76274299 0 0.285889183 6.13892113 0.285889183 6.13892113 8.76274299 3.12312074e-16 8.76274299"></polygon>
        <polygon id="path-9" points="0 0.28794568 0 1.4758404 1.18765714 1.4758404 1.18765714 0.28794568 0 0.28794568"></polygon>
        <polygon id="path-11" points="4.82969264e-20 0.588489866 4.82969264e-20 10.1601823 18.4109427 10.1601823 18.4109427 0.588489866 0 0.588489866"></polygon>
        <polygon id="path-13" points="0 0.0386065784 0 1.2265013 1.18765714 1.2265013 1.18765714 0.0386065784 0 0.0386065784"></polygon>
    </defs>
    <g id="Page-1" stroke="none" stroke-width="1" fill="none" fill-rule="evenodd">
        <g id="iPad-Pro-Portrait" transform="translate(-381.000000, -673.000000)">
            <g id="Page-1" transform="translate(381.000000, 672.000000)">
                <g id="Group-3" transform="translate(0.000000, 24.515890)">
                    <mask id="mask-2" fill="white">
                        <use xlink:href="#path-1"></use>
                    </mask>
                    <g id="Clip-2"></g>
                    <path d="M24.8539649,3.0442178 C19.4145949,10.0207235 11.2181214,14.0227408 2.37068149,14.0227408 L2.3017836,14.0227408 L2.3017836,12.8372219 L2.37068149,12.8372219 C3.96008463,12.8372219 5.55661514,12.700614 7.11394511,12.4285861 C9.8401635,11.5067798 11.594684,8.82451351 11.2822677,6.05315513 L11.2751403,5.98544513 L12.4535319,5.85121303 L12.4606593,5.92011092 C12.6934866,7.98823563 11.9866893,10.0539845 10.5184514,11.6089387 C11.9094761,11.177733 13.2743671,10.6289256 14.5786755,9.97914718 C16.1181871,8.12246773 16.8950702,5.58274882 16.6563034,3.18082569 L16.649176,3.1119278 L17.8287555,2.99432622 L17.8358829,3.06322412 C18.0295097,5.01612304 17.6660139,6.97852512 16.7857839,8.74492457 C19.5191297,7.04385933 21.918677,4.88189093 23.9202796,2.31485044 L23.9630438,2.26020729 L24.8967291,2.98838675 L24.8539649,3.0442178 Z M26.4528712,1.03548783 L-0.000356368416,1.03548783 L-0.000356368416,9.75107139 C-0.000356368416,17.7764881 1.6947694,24.4892812 5.03750514,29.7017632 L11.3654203,29.7017632 C13.6853787,29.7017632 15.5729434,27.8141985 15.5729434,25.4930522 C15.5729434,23.1730938 13.6853787,21.2843412 11.3654203,21.2843412 L6.51168249,21.2914686 C3.0442178,21.2914686 2.88028833,18.2195729 2.87910043,18.1886876 L2.86246991,17.7456029 L2.91236149,17.7277844 L9.91262508,15.4054503 C10.4281714,14.2056766 11.4331303,13.3135677 12.8170277,12.8217792 C13.9098908,12.4345256 14.8661461,12.429774 14.9065345,12.429774 L18.782635,12.429774 L18.782635,13.185275 C19.8018486,12.5628182 20.8258139,12.429774 21.5112291,12.429774 L24.5902522,12.429774 L24.5902522,13.0225335 C24.5902522,15.9958339 22.5458854,17.3642887 20.621496,17.6576987 L20.621496,18.5878202 C22.4413507,21.2629591 23.7207133,25.2554733 23.960668,29.0127843 C24.2338838,33.2892053 23.0887533,38.0182142 20.970737,41.3692652 C22.6848691,41.9251999 24.5296696,42.3944183 26.4528712,42.7650415 L26.4528712,1.03548783 Z" id="Fill-1" fill="#FFFFFF" mask="url(#mask-2)"></path>
                </g>
                <path d="M13.2719913,41.6118333 C13.2921856,41.6106454 13.3123798,41.6094575 13.332574,41.6082696 C14.1070813,41.5560022 14.7758661,41.0998507 15.1167918,40.4370054 C15.0954097,40.4370054 15.0764034,40.4381933 15.0562092,40.4393812 C14.2817019,40.4928365 13.614105,40.9478001 13.2719913,41.6118333" id="Fill-4" fill="#FFFFFF"></path>
                <path d="M16.2719007,40.1757874 C16.0295702,41.5359268 14.8986944,42.5503889 13.5219244,42.6442326 C13.4542144,42.6489842 13.3865044,42.6513599 13.3223581,42.6513599 C13.0645849,42.6513599 12.8032481,42.616911 12.5478507,42.549201 L12.0204255,42.4102173 L12.115457,41.872101 C12.3577876,40.5119616 13.4886633,39.4986874 14.8666212,39.4048437 C15.2004196,39.3834616 15.5270907,39.4143468 15.8418828,39.4998753 L16.3681201,39.6388589 L16.2719007,40.1757874 Z M18.6084896,39.3395095 L17.5964033,40.3504079 L17.5964033,38.1314205 L14.9058217,38.1314205 C14.8191054,38.1326084 14.0374707,38.1575542 13.1845623,38.465219 C12.0382439,38.8786063 11.2768034,39.5949068 10.920435,40.5963021 L10.8242155,40.86833 L10.7909544,40.879021 L4.1375561,43.0861294 C4.30386136,43.6729494 4.83247451,44.6232652 6.51096975,44.6232652 L11.3635197,44.6161378 C14.3380081,44.6161378 16.7577496,47.0346915 16.7577496,50.0091799 C16.7577496,54.3141103 14.8856275,58.3957166 11.6212928,61.2110271 C13.9863912,62.9477291 16.7434949,64.3874576 19.8189543,65.4921996 C21.9108369,62.3252723 23.0429006,57.7732597 22.7780001,53.6061251 C22.5451727,49.962852 21.3050106,46.1402067 19.5433627,43.6289973 L19.4364522,43.4757589 L19.4364522,41.4408952 C19.4364522,40.0522463 20.5661401,38.9201826 21.9559769,38.9201826 L22.0260627,38.9201826 L22.0260627,40.1057016 L21.9559769,40.1057016 C21.4142969,40.1057016 20.9236964,40.4383121 20.7193785,40.9396037 C21.6293059,40.7305342 23.1201137,40.089071 23.3695716,38.1314205 L21.5105164,38.1314205 C20.386768,38.1314205 19.4103185,38.5376805 18.6084896,39.3395095 L18.6084896,39.3395095 Z" id="Fill-6" fill="#FFFFFF"></path>
                <path d="M10.6618303,60.4754827 C12.7157002,58.7684779 14.2029444,56.5364238 14.9762639,54.0109596 C13.9831839,54.909008 12.7050092,55.4019843 11.365064,55.4019843 L5.84372929,55.4019843 C7.20862032,57.2943006 8.82890872,59.0013053 10.6618303,60.4754827" id="Fill-8" fill="#FFFFFF"></path>
                <g id="Group-12" transform="translate(0.000000, 0.757996)">
                    <mask id="mask-4" fill="white">
                        <use xlink:href="#path-3"></use>
                    </mask>
                    <g id="Clip-11"></g>
                    <path d="M0.012591684,8.2390002 C4.26881847,9.96619913 6.74795475,8.51577967 9.1451263,7.1152518 C11.9901342,5.45101129 14.9313615,3.73331553 20.1414677,7.64148916 C21.9636982,7.12356706 23.3642261,6.12335971 24.7184261,5.1564134 C27.5765008,3.11561027 30.2765855,1.18646925 35.6363665,5.04237551 L35.7836654,5.15166183 L35.7812896,5.15403761 L40.4734738,8.9600523 C41.9238932,8.00260915 43.2080074,7.53695442 44.4006537,7.53695442 C45.9270984,7.53695442 47.0841079,8.29958284 48.2019168,9.03607756 C49.7901321,10.0849886 51.2892552,11.0756928 54.0819957,10.1788323 L54.0914988,10.2109054 L54.0914988,4.31657184 C47.4903679,1.84575082 37.6344054,0.42978031 27.0455118,0.42978031 C16.4578062,0.42978031 6.60303159,1.84575082 -0.000475157888,4.31657184 L-0.000475157888,8.27107336 L0.012591684,8.2390002 Z" id="Fill-10" fill="#FFFFFF" mask="url(#mask-4)"></path>
                </g>
                <g id="Group-15" transform="translate(0.000000, 23.327995)">
                    <mask id="mask-6" fill="white">
                        <use xlink:href="#path-5"></use>
                    </mask>
                    <g id="Clip-14"></g>
                </g>
                <g id="Group-18" transform="translate(0.000000, 15.012732)">
                    <mask id="mask-8" fill="white">
                        <use xlink:href="#path-7"></use>
                    </mask>
                    <g id="Clip-17"></g>
                    <path d="M3.56237748,1.5142094 C2.4101196,0.75158099 1.41703961,0.0946752092 0.00582068413,0.337005732 L-0.000118789472,0.302556785 L-0.000118789472,8.76274299 L6.13892113,2.87434886 C5.12564693,2.55124149 4.29649642,2.00124624 3.56237748,1.5142094" id="Fill-16" fill="#FFFFFF" mask="url(#mask-8)"></path>
                </g>
                <path d="M54.091974,12.2451752 C53.3756735,12.4447415 52.6890703,12.5457125 52.0487951,12.5457125 C50.098272,12.5457125 48.7262536,11.6429125 47.5169767,10.8446473 C45.7660199,9.69001361 44.3809347,8.77533467 41.4991021,10.5500494 L54.091974,20.765944 L54.091974,12.2451752 Z" id="Fill-19" fill="#FFFFFF"></path>
                <path d="M37.3801959,14.365686 L37.3992022,14.3858802 C38.406537,15.5155681 39.2024264,16.407677 40.5530627,16.407677 L40.5696932,16.407677 C41.6483016,16.4017376 42.2660069,15.4419186 42.9834953,14.3300492 C43.1177274,14.1209797 43.2567111,13.9107223 43.3968827,13.7052166 L34.9355086,6.84156085 C30.2849007,3.4786309 28.2571645,4.92786246 25.4501692,6.93302875 C23.6101203,8.2480282 21.5241772,9.73764818 18.3881351,9.9823545 C16.9032667,10.0975803 15.4492836,10.743795 14.2946499,11.8022092 L11.3023431,14.6721629 C11.9449942,15.6545518 12.5175594,16.4029255 13.4951968,16.407677 L13.5094515,16.407677 C14.8600878,16.407677 15.6559773,15.5155681 16.663312,14.388256 L16.6704394,14.3787529 C16.8806967,14.1435497 17.1182757,13.8774613 17.3677336,13.6161244 L17.3665457,13.6161244 L17.5328509,13.4426918 L17.5352267,13.4462555 C18.1267983,12.8784418 18.8941783,12.5660255 19.7031346,12.5660255 C20.5085272,12.5660255 21.2747193,12.876066 21.8639151,13.4391281 L21.865103,13.4379402 L22.0302203,13.6054334 L22.0290324,13.6066213 C22.8843166,14.5260518 23.4248087,15.5512049 23.9035303,16.4575686 C24.7243656,18.0137107 25.3183129,19.138647 27.0466997,19.138647 C28.7679592,19.138647 29.3512155,18.022026 30.1589839,16.4765749 C30.6341418,15.5642718 31.1722581,14.5331792 32.0322939,13.6078092 L32.1867202,13.4462555 L32.1879081,13.4486313 C32.7794797,12.8796297 33.5480475,12.5660255 34.3593796,12.5660255 C35.1695238,12.5660255 35.9380917,12.8784418 36.5296633,13.4474434 L36.5296633,13.4462555 L36.6722107,13.5911787 L36.6722107,13.5923666 C36.9287959,13.8608308 37.1675628,14.129295 37.3801959,14.365686" id="Fill-25" fill="#FFFFFF"></path>
                <g id="Group-29" transform="translate(0.000000, 13.824838)">
                    <mask id="mask-10" fill="white">
                        <use xlink:href="#path-9"></use>
                    </mask>
                    <g id="Clip-28"></g>
                </g>
                <g id="Group-32" transform="translate(0.000000, 6.697469)">
                    <mask id="mask-12" fill="white">
                        <use xlink:href="#path-11"></use>
                    </mask>
                    <g id="Clip-31"></g>
                    <path d="M-0.000237578944,7.38050869 C0.201704524,7.35437501 0.403646626,7.34012027 0.60083715,7.34012027 C2.0738266,7.34012027 3.18094448,8.07305131 4.25004973,8.78222446 C5.18373498,9.39992972 6.06396497,9.98318602 7.21147127,10.1601823 L13.4372275,4.18863557 C14.8033064,2.93659454 16.5269417,2.17159034 18.2897774,2.03379455 C18.3313538,2.03023087 18.3717422,2.02666718 18.4109427,2.0231035 C14.4944538,-0.499984888 12.3087275,0.778189832 9.78088755,2.25711876 L9.73574755,2.28444034 L9.73455966,2.28325244 C8.07269494,3.25376243 6.18869392,4.35018926 3.67510869,4.35018926 C2.50028081,4.35018926 1.29931925,4.11736189 -0.000237578944,3.63982821 L-0.000237578944,7.38050869 Z" id="Fill-30" fill="#FFFFFF" mask="url(#mask-12)"></path>
                </g>
                <g id="Group-35" transform="translate(0.000000, 10.261153)">
                    <mask id="mask-14" fill="white">
                        <use xlink:href="#path-13"></use>
                    </mask>
                    <g id="Clip-34"></g>
                </g>
                <path d="M54.0698792,22.3630684 L44.3742825,14.4980175 C44.278063,14.6405649 44.1675888,14.8092459 44.0381082,15.0100001 C43.2006425,16.308369 42.3346672,17.6530659 40.5753951,17.6613811 L40.5516372,17.6613811 C38.6415025,17.6613811 37.5830883,16.4770501 36.4640915,15.2226333 L36.4522126,15.2107543 C36.2146336,14.943478 35.9675515,14.6666985 35.7062147,14.3958585 C35.3427189,14.0252354 34.8651852,13.8209175 34.3591421,13.8209175 C33.8542868,13.8209175 33.377941,14.0240475 33.0144452,14.3946706 C32.2339984,15.2107543 31.7445858,16.1480033 31.2729916,17.0543669 C30.3761311,18.7720627 29.5279742,20.3923511 27.0464622,20.3923511 C24.5601985,20.3923511 23.7037264,18.7673111 22.7961748,17.0448638 C22.3174533,16.139688 21.8232891,15.2060027 21.0464059,14.3946706 C20.6852859,14.0240475 20.2077523,13.8209175 19.702897,13.8209175 C19.1980417,13.8209175 18.7193202,14.0252354 18.3570123,14.3970464 C18.1075544,14.6548196 17.8675997,14.9220959 17.6359602,15.181057 L17.6003233,15.2214454 C16.4789507,16.4770501 15.4217244,17.6613811 13.5092139,17.6613811 L13.4890197,17.6613811 C11.9293139,17.6530659 11.0954118,16.6219732 10.382675,15.5552438 L7.78474926,18.0450711 L7.77999768,18.1650485 L7.67665084,18.1614848 L7.66595979,18.1614848 L1.19549725,24.3658589 L54.0924492,24.3658589 L54.0924492,22.3369348 L54.0698792,22.3630684 Z" id="Fill-38" fill="#FFFFFF"></path>
                <path d="M27.6438544,59.5231475 C30.8000907,59.0788748 33.3409975,58.1214317 35.6336343,57.2566443 L35.8617101,57.1711159 C36.009009,57.1152849 36.1539322,57.0606417 36.3000432,57.0059985 L36.3000432,52.0881144 L31.7599096,52.0881144 C31.1552712,52.0881144 30.5945849,51.7697586 30.2607865,51.235206 C29.8961028,50.6543255 29.8569023,49.9071397 30.1574396,49.2870586 L31.4581844,46.6083561 C31.2265449,46.4717482 31.0257907,46.2781213 30.8737402,46.0357908 C30.5351902,45.4929229 30.4971775,44.7980045 30.7787086,44.2206877 L32.0913323,41.5158514 C31.8252438,41.3875588 31.5924165,41.1832409 31.4261112,40.9159646 C31.1089433,40.4111093 31.0756823,39.7625188 31.3358312,39.2232146 L35.5195964,30.6038505 C35.7904364,30.04554 36.3297406,29.6974868 36.923688,29.6974868 C37.5188232,29.6974868 38.0557516,30.04554 38.3265916,30.6038505 L39.1177295,32.233642 L41.0326158,28.2898316 C41.30108,27.7350847 41.8344448,27.3905953 42.4236405,27.3905953 C43.0128363,27.3905953 43.5473889,27.7350847 43.8146652,28.2898316 L47.9366599,36.7820909 C48.1968089,37.3166435 48.161172,37.9592946 47.8487557,38.4593983 C47.6848262,38.7207351 47.4591263,38.9226772 47.1977894,39.0485941 L48.4878431,41.7071024 C48.7646226,42.2784798 48.7289857,42.9662708 48.3928115,43.5031993 C48.2443247,43.7407782 48.048322,43.9308414 47.8202462,44.0662614 L49.0996089,46.6986361 C49.3965825,47.3127776 49.357382,48.0516481 48.9986378,48.6277771 C48.6660273,49.1563902 48.1100926,49.4723702 47.5125815,49.4723702 L43.7635858,49.4723702 C43.9762189,50.0520628 43.9144484,50.7101565 43.5865895,51.235206 C43.4440421,51.4632818 43.2587305,51.6485934 43.0472853,51.7899528 L43.0472853,55.2229686 C44.5796694,55.0816091 46.2522252,55.1374401 48.1754268,55.489057 C48.8881636,54.5126075 49.5367541,53.4850786 50.1164467,52.4052823 C52.7547609,47.4980892 54.0923304,41.395874 54.0923304,34.2661299 L54.0923304,25.5505463 L27.6379149,25.5505463" id="Fill-40" fill="#FFFFFF"></path>
                <path d="M27.6380337,67.2792685 C31.8609995,66.4596211 35.6325652,65.1755069 38.8529478,63.4637506 L39.7224867,62.9838411 C42.7064783,61.2720849 45.2402577,59.137438 47.3071945,56.6095981 C42.7052904,55.9229949 39.6227036,57.084756 36.1694936,58.3902523 L35.8962778,58.4935991 L35.893902,58.4935991 C33.5406826,59.3821444 30.9261263,60.3431512 27.6439732,60.7779207" id="Fill-42" fill="#FFFFFF"></path>
                <path d="M42.5307886,50.5744989 C42.6388871,50.4010663 42.7054092,50.1147837 42.5676134,49.8308769 L42.3941807,49.4721326 L40.8214081,46.2315558 L40.5078039,45.586529 L41.5697818,45.586529 C41.6636255,45.586529 41.737275,45.5520801 41.7942939,45.5093159 C41.8204276,45.4903095 41.8418097,45.4677395 41.8620039,45.4475453 C41.8631918,45.4451695 41.8655676,45.4427938 41.8679434,45.440418 C41.8750707,45.4321027 41.8786344,45.4249753 41.8845739,45.4166601 C41.8964529,45.4024053 41.9095197,45.3869627 41.9166471,45.3738959 C41.9617871,45.3038101 41.9974239,45.2087785 42.008115,45.1042438 C42.0176181,44.9985211 42.0045513,44.8809196 41.9475323,44.7645059 L40.8926818,42.5906585 L39.8366434,40.4168112 L41.105315,40.4168112 C41.2431108,40.4168112 41.3262634,40.3146522 41.3654639,40.2540696 C41.3999129,40.1982386 41.4284223,40.1222133 41.4367376,40.0390607 C41.4462408,39.9547201 41.4331739,39.8596886 41.3880339,39.7670328 L38.4254245,33.6612539 L37.2066445,31.1476687 C37.1199282,30.9694845 36.9916356,30.9433508 36.9227377,30.9433508 C36.8550277,30.9433508 36.726735,30.9694845 36.6400187,31.1476687 L32.4574414,39.7670328 C32.3659735,39.9547201 32.4099256,40.1424075 32.4811993,40.2540696 C32.5192119,40.3146522 32.6035525,40.4168112 32.7413482,40.4168112 L34.0088319,40.4168112 L31.8991309,44.7645059 C31.7862809,44.9985211 31.840924,45.2325364 31.9288283,45.3738959 C31.9787198,45.4522969 32.0903819,45.586529 32.2756935,45.586529 L33.3388593,45.586529 L31.2778619,49.8308769 C31.1400662,50.1147837 31.2077762,50.4010663 31.3170625,50.5744989 C31.378833,50.6742821 31.5190046,50.8429632 31.7601472,50.8429632 L42.086516,50.8429632 C42.3264707,50.8429632 42.4666423,50.6742821 42.5307886,50.5744989" id="Fill-44" fill="#FFFFFF"></path>
                <path d="M47.5121064,48.2265062 C47.7437458,48.2265062 47.8815416,48.0625768 47.9409364,47.9663573 C48.046659,47.7976762 48.1119932,47.518521 47.978949,47.2429294 L45.9417095,43.0472853 L47.0024995,43.0472853 C47.1830595,43.0472853 47.28997,42.9178047 47.3374858,42.8417795 C47.4230143,42.7051716 47.4764695,42.4759079 47.3671832,42.2513958 L45.2812401,37.9535927 L46.5463479,37.9535927 C46.6758285,37.9535927 46.7566053,37.8561853 46.7934301,37.7979785 C46.8611401,37.6875043 46.9039043,37.5069443 46.8160001,37.3251964 L42.6940054,28.832937 C42.6108527,28.6606923 42.4884996,28.6357465 42.4243533,28.6357465 C42.3590191,28.6357465 42.2366659,28.6606923 42.1523254,28.832937 L39.8109849,33.6605412 L41.8802975,37.9250832 L42.5086938,39.2234522 C42.6393622,39.4919164 42.6963812,39.78889 42.6821264,40.0823 C42.6666838,40.37571 42.5787796,40.6631806 42.4207896,40.9162021 C42.2532964,41.1822905 42.021657,41.3877963 41.7543806,41.516089 L42.1915259,42.4165132 L43.0681922,44.2209252 C43.2083638,44.5095837 43.2689464,44.8279394 43.2523159,45.1415437 C43.2356854,45.4551479 43.1418417,45.7651884 42.9731606,46.0348405 C42.8211101,46.277171 42.6203559,46.4707978 42.3887164,46.6085936 L42.4481112,46.7321347 L43.1739148,48.2265062 L47.5121064,48.2265062 Z" id="Fill-46" fill="#FFFFFF"></path>
                <path d="M41.8011837,55.387492 L41.8011837,52.0887083 L37.5461448,52.0887083 L37.5461448,56.549253 C38.9300422,56.0550888 40.3103758,55.6345741 41.8011837,55.387492" id="Fill-48" fill="#FFFFFF"></path>
                <polygon id="Fill-50" fill="#FFFFFF" points="68.81878 4.10156289 72.9288958 4.10156289 72.9288958 21.3307879 79.458753 21.3307879 79.458753 24.4501995 68.81878 24.4501995"></polygon>
                <polygon id="Fill-52" fill="#FFFFFF" points="82.2290423 4.10156289 86.339158 4.10156289 86.339158 21.3307879 92.8690153 21.3307879 92.8690153 24.4501995 82.2290423 24.4501995"></polygon>
                <path d="M100.828148,17.4827218 L106.629825,17.4827218 L103.714732,8.99877767 L100.828148,17.4827218 Z M108.990172,24.4497243 L107.678736,20.6306428 L99.7495391,20.6306428 L98.4369155,24.4497243 L94.0939724,24.4497243 L101.29499,4.04406879 L106.162983,4.04406879 L113.334303,24.4497243 L108.990172,24.4497243 Z" id="Fill-54" fill="#FFFFFF"></path>
                <path d="M129.950099,19.0720061 C131.096418,17.8579777 131.670171,16.2388772 131.670171,14.2170804 C131.670171,12.1964715 131.096418,10.5833104 129.950099,9.37878519 C128.802593,8.17307205 127.305846,7.57080942 125.461045,7.57080942 C123.613869,7.57080942 122.11237,8.17901152 120.956548,9.39303993 C119.800727,10.6082562 119.222222,12.2202294 119.222222,14.232523 C119.222222,16.2436288 119.800727,17.8579777 120.956548,19.0720061 C122.11237,20.2860345 123.613869,20.8930487 125.461045,20.8930487 C127.305846,20.8930487 128.802593,20.2860345 129.950099,19.0720061 M125.461045,24.6539234 C122.525757,24.6539234 120.057312,23.6727224 118.05571,21.7103203 C116.054107,19.7467303 115.0539,17.2545272 115.0539,14.232523 C115.0539,11.2105188 116.060046,8.71712783 118.071152,6.75472575 C120.082258,4.79232367 122.550703,3.80993474 125.4753,3.80993474 C128.399897,3.80993474 130.86359,4.79232367 132.865193,6.75472575 C134.866796,8.71712783 135.867003,11.2105188 135.867003,14.232523 C135.867003,17.2545272 134.866796,19.7467303 132.865193,21.7103203 C130.86359,23.6727224 128.395145,24.6539234 125.461045,24.6539234" id="Fill-56" fill="#FFFFFF"></path>
                <polygon id="Fill-58" fill="#FFFFFF" points="147.849772 4.10156289 151.959888 4.10156289 151.959888 21.3307879 158.489745 21.3307879 158.489745 24.4501995 147.849772 24.4501995"></polygon>
                <polygon id="Fill-60" fill="#FFFFFF" points="161.260034 4.10156289 165.37015 4.10156289 165.37015 21.3307879 171.900007 21.3307879 171.900007 24.4501995 161.260034 24.4501995"></polygon>
                <path d="M179.85914,17.4827218 L185.660817,17.4827218 L182.745724,8.99877767 L179.85914,17.4827218 Z M188.021164,24.4497243 L186.709729,20.6306428 L178.780531,20.6306428 L177.467908,24.4497243 L173.124965,24.4497243 L180.325982,4.04406879 L185.193975,4.04406879 L192.365295,24.4497243 L188.021164,24.4497243 Z" id="Fill-62" fill="#FFFFFF"></path>
                <path d="M208.981091,19.0720061 C210.12741,17.8579777 210.701163,16.2388772 210.701163,14.2170804 C210.701163,12.1964715 210.12741,10.5833104 208.981091,9.37878519 C207.833585,8.17307205 206.336838,7.57080942 204.492037,7.57080942 C202.644861,7.57080942 201.143362,8.17901152 199.987541,9.39303993 C198.831719,10.6082562 198.253214,12.2202294 198.253214,14.232523 C198.253214,16.2436288 198.831719,17.8579777 199.987541,19.0720061 C201.143362,20.2860345 202.644861,20.8930487 204.492037,20.8930487 C206.336838,20.8930487 207.833585,20.2860345 208.981091,19.0720061 M204.492037,24.6539234 C201.556749,24.6539234 199.088304,23.6727224 197.086702,21.7103203 C195.085099,19.7467303 194.084892,17.2545272 194.084892,14.232523 C194.084892,11.2105188 195.091039,8.71712783 197.102144,6.75472575 C199.11325,4.79232367 201.581695,3.80993474 204.506292,3.80993474 C207.430889,3.80993474 209.894583,4.79232367 211.896185,6.75472575 C213.897788,8.71712783 214.897995,11.2105188 214.897995,14.232523 C214.897995,17.2545272 213.897788,19.7467303 211.896185,21.7103203 C209.894583,23.6727224 207.426137,24.6539234 204.492037,24.6539234" id="Fill-64" fill="#FFFFFF"></path>
                <path d="M69.0497068,37.963571 L70.7745299,37.963571 C71.2366209,37.963571 71.6298141,37.8043931 71.9564851,37.4860373 C72.2843441,37.1676816 72.4458978,36.7721126 72.4458978,36.2969547 C72.4458978,35.8217968 72.2902835,35.4594889 71.9766793,35.2064674 C71.6630751,34.9534458 71.2318694,34.8263411 70.683062,34.8263411 L69.0497068,34.8263411 L69.0497068,37.963571 Z M67.8998247,42.7199015 L67.8998247,34.2264542 C67.8998247,33.9651174 68.0304931,33.8332611 68.2918299,33.8332611 L70.4870594,33.8332611 C71.5324067,33.8332611 72.318793,34.0197605 72.8450304,34.3891958 C73.3724556,34.759819 73.6361683,35.345451 73.6361683,36.14728 C73.6361683,37.218761 73.1348767,37.9540679 72.1334814,38.3555763 L72.1334814,38.4078436 C72.386503,38.49456 72.5967604,38.6644289 72.7666293,38.9174505 C72.9364983,39.170472 73.1182462,39.5446589 73.3094972,40.0411989 L74.327523,42.6153667 C74.3548446,42.6925799 74.3679114,42.7543504 74.3679114,42.7971146 C74.3679114,42.9372862 74.1849756,43.007372 73.8191041,43.007372 L73.6884356,43.007372 C73.391462,43.007372 73.2180293,42.9372862 73.165762,42.7971146 L72.172682,40.2372015 C71.9814309,39.7406615 71.7414762,39.4032994 71.4528178,39.2251152 C71.1665351,39.0457431 70.7567115,38.956651 70.2257225,38.956651 L69.0497068,38.956651 L69.0497068,42.7199015 C69.0497068,42.9111525 68.8762741,43.007372 68.5270331,43.007372 L68.4224983,43.007372 C68.0744452,43.007372 67.8998247,42.9111525 67.8998247,42.7199015 L67.8998247,42.7199015 Z" id="Fill-66" fill="#FFFFFF"></path>
                <path d="M76.8509678,42.5886391 L76.8509678,34.2258603 C76.8509678,33.9645234 76.9804483,33.833855 77.242973,33.833855 L81.8033008,33.833855 C81.9767335,33.833855 82.0646377,33.9645234 82.0646377,34.2258603 L82.0646377,34.4349297 C82.0646377,34.6962666 81.9767335,34.826935 81.8033008,34.826935 L78.0008498,34.826935 L78.0008498,37.806175 L81.4112956,37.806175 C81.5847282,37.806175 81.6726324,37.9368434 81.6726324,38.1981802 L81.6726324,38.4072497 C81.6726324,38.6685865 81.5847282,38.8004428 81.4112956,38.8004428 L78.0008498,38.8004428 L78.0008498,41.9875644 L81.8163677,41.9875644 C81.9898003,41.9875644 82.0765166,42.1182328 82.0765166,42.3795696 L82.0765166,42.5886391 C82.0765166,42.8499759 81.9898003,42.9806444 81.8163677,42.9806444 L77.242973,42.9806444 C76.9804483,42.9806444 76.8509678,42.8499759 76.8509678,42.5886391" id="Fill-68" fill="#FFFFFF"></path>
                <path d="M84.1813473,42.1049284 C84.1813473,42.0003936 84.2395541,41.8566584 84.3571557,41.6749105 C84.4747573,41.4907868 84.568601,41.3993189 84.6386868,41.3993189 C84.6648204,41.3993189 84.7729189,41.4539621 84.9653578,41.5632484 C85.1566088,41.6725347 85.4274488,41.7830089 85.775502,41.8958589 C86.1235552,42.0098968 86.5226878,42.0669157 86.971712,42.0669157 C87.4195483,42.0669157 87.8032383,41.9231805 88.1204062,41.6345221 C88.438762,41.3470515 88.5979399,40.9823679 88.5979399,40.5380952 C88.5979399,40.0938226 88.4518288,39.7410179 88.1607946,39.4784932 C87.8685725,39.2171563 87.5157678,39.0116505 87.1011925,38.8584121 C86.6878051,38.7063616 86.272042,38.5424321 85.853903,38.3678116 C85.4357641,38.194379 85.0805836,37.923539 84.7895494,37.5576674 C84.4973273,37.1917958 84.3512162,36.7261411 84.3512162,36.1595153 C84.3512162,35.4372753 84.6161168,34.8552069 85.1471057,34.414498 C85.6792825,33.9749769 86.3813283,33.7564043 87.2520551,33.7564043 C87.6785093,33.7564043 88.1358488,33.8336174 88.6240735,33.9904195 C89.1111104,34.1484095 89.3546288,34.334909 89.3546288,34.5534816 C89.3546288,34.6485132 89.3011735,34.7874969 89.1930751,34.9704327 C89.0837888,35.1533685 88.9982604,35.2460243 88.9376777,35.2460243 C88.9032288,35.2460243 88.810573,35.2008843 88.6620862,35.1141679 C88.2178135,34.8706495 87.739092,34.7494843 87.2259215,34.7494843 C86.711563,34.7494843 86.3017394,34.8730253 85.9964504,35.1212953 C85.6923494,35.3695653 85.5402988,35.7330611 85.5402988,36.2117827 C85.5402988,36.6905042 85.8230178,37.065879 86.3884557,37.3355311 C86.633162,37.449569 86.9075657,37.5600432 87.2128546,37.6693295 C87.5181436,37.7774279 87.8198688,37.9045326 88.1204062,38.0482679 C88.4209435,38.1920032 88.6953472,38.3594963 88.9436172,38.5519353 C89.1930751,38.7431863 89.3950172,39.0045232 89.5518193,39.3347579 C89.7074335,39.6661805 89.7870225,40.0498705 89.7870225,40.4858279 C89.7870225,41.2876568 89.5256856,41.9160531 89.003012,42.3733926 C88.4803383,42.8295442 87.8186809,43.0599957 87.016852,43.0599957 C86.215023,43.0599957 85.5426746,42.9507094 84.997431,42.7321368 C84.4533752,42.5147521 84.1813473,42.3056826 84.1813473,42.1049284" id="Fill-70" fill="#FFFFFF"></path>
                <path d="M93.8689851,41.1258655 C94.3524583,41.7518861 95.0556919,42.0666782 95.9786861,42.0666782 C96.9028682,42.0666782 97.6072898,41.7518861 98.0967024,41.1258655 C98.5849271,40.4986571 98.8284456,39.5851661 98.8284456,38.3877682 C98.8284456,37.1903703 98.5849271,36.2840067 98.0967024,35.6698651 C97.6072898,35.0557235 96.9028682,34.7492467 95.9786861,34.7492467 C95.0556919,34.7492467 94.3524583,35.0557235 93.8689851,35.6698651 C93.3855119,36.2840067 93.1443693,37.1903703 93.1443693,38.3877682 C93.1443693,39.5851661 93.3855119,40.4986571 93.8689851,41.1258655 M92.9875672,41.8635482 C92.2997762,41.0664708 91.9552867,39.9058977 91.9552867,38.3806408 C91.9552867,36.8565719 92.2974004,35.7055019 92.9804398,34.9250551 C93.6646672,34.1457962 94.6636867,33.7561667 95.9786861,33.7561667 C97.2948735,33.7561667 98.2974566,34.1457962 98.9852477,34.9250551 C99.6730387,35.7055019 100.017528,36.8565719 100.017528,38.3806408 C100.017528,39.9058977 99.6730387,41.0664708 98.9852477,41.8635482 C98.2974566,42.6606255 97.2972493,43.0597582 95.9858135,43.0597582 C94.6755656,43.0597582 93.6753583,42.6606255 92.9875672,41.8635482" id="Fill-72" fill="#FFFFFF"></path>
                <path d="M104.159836,37.963571 L105.884659,37.963571 C106.34675,37.963571 106.739943,37.8043931 107.066614,37.4860373 C107.394473,37.1676816 107.556027,36.7721126 107.556027,36.2969547 C107.556027,35.8217968 107.400413,35.4594889 107.086808,35.2064674 C106.773204,34.9534458 106.341998,34.8263411 105.793191,34.8263411 L104.159836,34.8263411 L104.159836,37.963571 Z M103.009954,42.7199015 L103.009954,34.2264542 C103.009954,33.9651174 103.140622,33.8332611 103.401959,33.8332611 L105.597188,33.8332611 C106.642536,33.8332611 107.428922,34.0197605 107.955159,34.3891958 C108.482585,34.759819 108.746297,35.345451 108.746297,36.14728 C108.746297,37.218761 108.245006,37.9540679 107.243611,38.3555763 L107.243611,38.4078436 C107.496632,38.49456 107.706889,38.6644289 107.876758,38.9174505 C108.046627,39.170472 108.228375,39.5446589 108.419626,40.0411989 L109.437652,42.6153667 C109.464974,42.6925799 109.478041,42.7543504 109.478041,42.7971146 C109.478041,42.9372862 109.295105,43.007372 108.929233,43.007372 L108.798565,43.007372 C108.501591,43.007372 108.328158,42.9372862 108.275891,42.7971146 L107.282811,40.2372015 C107.09156,39.7406615 106.851605,39.4032994 106.562947,39.2251152 C106.276664,39.0457431 105.866841,38.956651 105.335852,38.956651 L104.159836,38.956651 L104.159836,42.7199015 C104.159836,42.9111525 103.986403,43.007372 103.637162,43.007372 L103.532627,43.007372 C103.184574,43.007372 103.009954,42.9111525 103.009954,42.7199015 L103.009954,42.7199015 Z" id="Fill-74" fill="#FFFFFF"></path>
                <path d="M113.724527,42.7197827 L113.724527,34.8262223 L111.216881,34.8262223 C111.041072,34.8262223 110.954356,34.6967417 110.954356,34.434217 L110.954356,34.2263354 C110.954356,33.9649986 111.041072,33.8343302 111.216881,33.8343302 L117.344042,33.8343302 C117.518662,33.8343302 117.606567,33.9649986 117.606567,34.2263354 L117.606567,34.434217 C117.606567,34.6967417 117.518662,34.8262223 117.344042,34.8262223 L114.874409,34.8262223 L114.874409,42.7197827 C114.874409,42.9110337 114.699788,43.0072532 114.351735,43.0072532 L114.2472,43.0072532 C113.897959,43.0072532 113.724527,42.9110337 113.724527,42.7197827" id="Fill-76" fill="#FFFFFF"></path>
                <path d="M119.566474,41.987802 C119.566474,41.7098346 119.739907,41.5684751 120.08796,41.5684751 L120.205561,41.5684751 C120.554802,41.5684751 120.729423,41.6920162 120.729423,41.9355346 C120.729423,42.6411441 120.570245,43.2445946 120.251889,43.7446983 C119.934721,44.2459898 119.646063,44.4966356 119.389478,44.4966356 C119.132892,44.4966356 119.003412,44.4313014 119.003412,44.300633 C119.003412,44.2483656 119.0438,44.142643 119.122201,43.9870288 C119.417987,43.3954572 119.566474,42.7278604 119.566474,41.987802" id="Fill-78" fill="#FFFFFF"></path>
                <path d="M127.273891,38.485532 C127.273891,35.3328594 128.68511,33.7565231 131.507548,33.7565231 C132.134757,33.7565231 132.707322,33.8456152 133.226432,34.0237994 C133.743166,34.2031715 134.003315,34.3825436 134.003315,34.5654794 C134.003315,34.6878325 133.948672,34.8446346 133.839385,35.0358857 C133.731287,35.2283246 133.637443,35.3233562 133.559042,35.3233562 C133.541224,35.3233562 133.44738,35.2758404 133.278699,35.1796209 C133.107642,35.0845894 132.8665,34.9883699 132.552895,34.8933383 C132.239291,34.7971188 131.900741,34.7484152 131.533682,34.7484152 C130.426564,34.7484152 129.63899,35.0537041 129.168583,35.6630941 C128.698177,36.273672 128.462974,37.1740962 128.462974,38.3679304 C128.462974,40.8339998 129.438236,42.0670345 131.389947,42.0670345 C132.077738,42.0670345 132.6408,42.0100156 133.075569,41.8959777 L133.075569,39.2564756 L131.546749,39.2564756 C131.372128,39.2564756 131.285412,39.1258072 131.285412,38.8644704 L131.285412,38.6565888 C131.285412,38.3940641 131.372128,38.2633956 131.546749,38.2633956 L133.833446,38.2633956 C134.094783,38.2633956 134.225451,38.3940641 134.225451,38.6565888 L134.225451,42.1193019 C134.225451,42.7453224 133.253753,43.0601145 131.311545,43.0601145 C128.619776,43.0601145 127.273891,41.5348577 127.273891,38.485532" id="Fill-80" fill="#FFFFFF"></path>
                <path d="M138.948639,41.1258655 C139.432113,41.7518861 140.135346,42.0666782 141.05834,42.0666782 C141.982523,42.0666782 142.686944,41.7518861 143.176357,41.1258655 C143.664581,40.4986571 143.9081,39.5851661 143.9081,38.3877682 C143.9081,37.1903703 143.664581,36.2840067 143.176357,35.6698651 C142.686944,35.0557235 141.982523,34.7492467 141.05834,34.7492467 C140.135346,34.7492467 139.432113,35.0557235 138.948639,35.6698651 C138.465166,36.2840067 138.224024,37.1903703 138.224024,38.3877682 C138.224024,39.5851661 138.465166,40.4986571 138.948639,41.1258655 M138.067222,41.8635482 C137.379431,41.0664708 137.034941,39.9058977 137.034941,38.3806408 C137.034941,36.8565719 137.377055,35.7055019 138.060094,34.9250551 C138.744322,34.1457962 139.743341,33.7561667 141.05834,33.7561667 C142.374528,33.7561667 143.377111,34.1457962 144.064902,34.9250551 C144.752693,35.7055019 145.097183,36.8565719 145.097183,38.3806408 C145.097183,39.9058977 144.752693,41.0664708 144.064902,41.8635482 C143.377111,42.6606255 142.376904,43.0597582 141.065468,43.0597582 C139.75522,43.0597582 138.755013,42.6606255 138.067222,41.8635482" id="Fill-82" fill="#FFFFFF"></path>
                <path d="M148.089846,42.5886391 L148.089846,34.0951919 C148.089846,33.9027529 148.263278,33.8077213 148.611331,33.8077213 L148.715866,33.8077213 C149.065107,33.8077213 149.239728,33.9027529 149.239728,34.0951919 L149.239728,41.9875644 L152.831921,41.9875644 C153.00773,41.9875644 153.094446,42.1182328 153.094446,42.3795696 L153.094446,42.5886391 C153.094446,42.8499759 153.00773,42.9806444 152.831921,42.9806444 L148.481851,42.9806444 C148.219326,42.9806444 148.089846,42.8499759 148.089846,42.5886391" id="Fill-84" fill="#FFFFFF"></path>
                <path d="M155.394804,42.7197827 L155.394804,34.2263354 C155.394804,33.9649986 155.524285,33.8343302 155.78681,33.8343302 L159.902865,33.8343302 C160.076297,33.8343302 160.164202,33.9649986 160.164202,34.2263354 L160.164202,34.434217 C160.164202,34.6967417 160.076297,34.8262223 159.902865,34.8262223 L156.544686,34.8262223 L156.544686,37.8054622 L159.667662,37.8054622 C159.841094,37.8054622 159.927811,37.9373185 159.927811,38.1974675 L159.927811,38.4077248 C159.927811,38.6690617 159.841094,38.7997301 159.667662,38.7997301 L156.544686,38.7997301 L156.544686,42.7197827 C156.544686,42.9110337 156.370066,43.0072532 156.020825,43.0072532 L155.91629,43.0072532 C155.568237,43.0072532 155.394804,42.9110337 155.394804,42.7197827" id="Fill-86" fill="#FFFFFF"></path>
                <path d="M167.584624,40.3148898 C167.584624,40.7591624 167.691534,41.1238461 167.905355,41.4065651 C168.117988,41.689284 168.357943,41.8781593 168.624031,41.9743787 C168.89012,42.0705982 169.170463,42.1193019 169.466249,42.1193019 C170.015056,42.1193019 170.580494,41.9577482 171.166126,41.6346409 C171.14712,41.4778388 171.138805,41.3519219 171.138805,41.2557024 L171.138805,38.5900667 L169.54465,38.5900667 C168.909126,38.5900667 168.423277,38.7207351 168.088291,38.9820719 C167.753305,39.2434088 167.584624,39.6876814 167.584624,40.3148898 M166.447808,40.2103551 C166.447808,39.6532325 166.614114,39.1602562 166.944348,38.7338019 C167.275771,38.3073477 167.658273,38.0376956 168.09423,37.9236578 L168.09423,37.8713904 C167.703413,37.7157762 167.380306,37.469882 167.127284,37.1396472 C166.874262,36.8094125 166.748346,36.4126557 166.748346,35.9505646 C166.748346,35.2366399 166.990676,34.6925841 167.472961,34.3172094 C167.956435,33.9430225 168.582455,33.7565231 169.348647,33.7565231 C170.116027,33.7565231 170.498529,33.8955068 170.498529,34.1734741 C170.498529,34.2518752 170.473583,34.3789799 170.420128,34.5524125 C170.367861,34.7270331 170.297775,34.8137494 170.211059,34.8137494 C170.202743,34.8137494 170.1089,34.7947431 169.930716,34.7543546 C169.751343,34.716342 169.539898,34.6973357 169.29638,34.6973357 C169.051674,34.6973357 168.820034,34.7424757 168.597898,34.8339436 C168.375761,34.9254115 168.216584,35.0489525 168.120364,35.2057546 C167.937428,35.4849099 167.84596,35.7961383 167.84596,36.1394399 C167.84596,36.4839293 167.994447,36.8224793 168.290233,37.1527141 C168.587207,37.4841367 169.021976,37.6492541 169.596917,37.6492541 L171.138805,37.6492541 L171.295607,36.2784236 C171.313425,36.0847967 171.452409,35.9897651 171.714933,35.9897651 L171.844414,35.9897651 C172.106939,35.9897651 172.236419,36.0847967 172.236419,36.2784236 L172.236419,37.6492541 L173.334034,37.6492541 C173.507467,37.6492541 173.596559,37.7799225 173.596559,38.0412593 L173.596559,38.1980614 C173.596559,38.4593983 173.507467,38.5900667 173.334034,38.5900667 L172.236419,38.5900667 L172.236419,41.1511677 C172.236419,41.7961945 172.471622,42.1193019 172.942029,42.1193019 C173.090516,42.1193019 173.216432,42.107423 173.320967,42.084853 C173.425502,42.0646587 173.487272,42.0527798 173.503903,42.0527798 C173.582304,42.0527798 173.647638,42.1335566 173.699906,42.2951103 C173.752173,42.456664 173.778307,42.5802051 173.778307,42.6669214 C173.778307,42.9282582 173.47183,43.0601145 172.8565,43.0601145 C172.243547,43.0601145 171.787395,42.8712393 171.491609,42.4970524 C170.873904,42.8712393 170.163543,43.0601145 169.361714,43.0601145 C168.647789,43.0601145 167.999199,42.8593603 167.414755,42.4578519 C166.769728,41.9969487 166.447808,41.2473872 166.447808,40.2103551" id="Fill-88" fill="#FFFFFF"></path>
                <path d="M179.528549,42.1049284 C179.528549,42.0003936 179.586755,41.8566584 179.704357,41.6749105 C179.821959,41.4907868 179.915802,41.3993189 179.985888,41.3993189 C180.012022,41.3993189 180.12012,41.4539621 180.312559,41.5632484 C180.50381,41.6725347 180.77465,41.7830089 181.122703,41.8958589 C181.470756,42.0098968 181.869889,42.0669157 182.318913,42.0669157 C182.76675,42.0669157 183.15044,41.9231805 183.467607,41.6345221 C183.785963,41.3470515 183.945141,40.9823679 183.945141,40.5380952 C183.945141,40.0938226 183.79903,39.7410179 183.507996,39.4784932 C183.215774,39.2171563 182.862969,39.0116505 182.448394,38.8584121 C182.035006,38.7063616 181.619243,38.5424321 181.201104,38.3678116 C180.782965,38.194379 180.427785,37.923539 180.136751,37.5576674 C179.844529,37.1917958 179.698418,36.7261411 179.698418,36.1595153 C179.698418,35.4372753 179.963318,34.8552069 180.494307,34.414498 C181.026484,33.9749769 181.72853,33.7564043 182.599256,33.7564043 C183.025711,33.7564043 183.48305,33.8336174 183.971275,33.9904195 C184.458312,34.1484095 184.70183,34.334909 184.70183,34.5534816 C184.70183,34.6485132 184.648375,34.7874969 184.540276,34.9704327 C184.43099,35.1533685 184.345462,35.2460243 184.284879,35.2460243 C184.25043,35.2460243 184.157774,35.2008843 184.009287,35.1141679 C183.565015,34.8706495 183.086293,34.7494843 182.573123,34.7494843 C182.058764,34.7494843 181.648941,34.8730253 181.343652,35.1212953 C181.039551,35.3695653 180.8875,35.7330611 180.8875,36.2117827 C180.8875,36.6905042 181.170219,37.065879 181.735657,37.3355311 C181.980363,37.449569 182.254767,37.5600432 182.560056,37.6693295 C182.865345,37.7774279 183.16707,37.9045326 183.467607,38.0482679 C183.768145,38.1920032 184.042549,38.3594963 184.290819,38.5519353 C184.540276,38.7431863 184.742219,39.0045232 184.899021,39.3347579 C185.054635,39.6661805 185.134224,40.0498705 185.134224,40.4858279 C185.134224,41.2876568 184.872887,41.9160531 184.350213,42.3733926 C183.82754,42.8295442 183.165882,43.0599957 182.364053,43.0599957 C181.562224,43.0599957 180.889876,42.9507094 180.344632,42.7321368 C179.800576,42.5147521 179.528549,42.3056826 179.528549,42.1049284" id="Fill-90" fill="#FFFFFF"></path>
                <path d="M188.81943,38.0934079 L190.857857,38.0934079 C191.188092,38.0934079 191.515951,37.9888732 191.83787,37.7798037 C192.012491,37.6669537 192.156226,37.4899574 192.267888,37.2511905 C192.381926,37.0112358 192.438945,36.7261411 192.438945,36.3947185 C192.438945,35.8114621 192.263136,35.4040143 191.915083,35.1735627 C191.56703,34.9431111 191.153643,34.8266974 190.674921,34.8266974 L188.81943,34.8266974 L188.81943,38.0934079 Z M187.66836,42.7202578 L187.66836,34.2256227 C187.66836,33.9642859 187.800216,33.8336174 188.060365,33.8336174 L190.714122,33.8336174 C191.384094,33.8336174 192.002987,33.9821043 192.568425,34.2778901 C192.891533,34.4441953 193.149306,34.7067201 193.340557,35.0690279 C193.531808,35.4301479 193.628027,35.8542264 193.628027,36.3424511 C193.628027,36.8318637 193.550814,37.246439 193.398764,37.5909284 C193.246713,37.93423 193.063777,38.1979426 192.851144,38.3808784 C192.637323,38.5638142 192.390241,38.7123011 192.111086,38.8251511 C191.684632,38.9997716 191.262929,39.0864879 190.84479,39.0864879 L188.81943,39.0864879 L188.81943,42.7202578 C188.81943,42.9115089 188.644809,43.0077284 188.296756,43.0077284 L188.192221,43.0077284 C187.844168,43.0077284 187.66836,42.9115089 187.66836,42.7202578 L187.66836,42.7202578 Z" id="Fill-92" fill="#FFFFFF"></path>
                <path d="M197.403751,39.6617853 L200.526726,39.6617853 L199.154708,35.7678664 L198.984839,35.0099896 L198.775769,35.7678664 L197.403751,39.6617853 Z M195.143187,42.7847605 C195.143187,42.7419963 195.155066,42.6802258 195.182388,42.6018247 L198.279229,34.0169096 C198.321993,33.8779259 198.496614,33.8078401 198.801903,33.8078401 L199.180841,33.8078401 C199.48613,33.8078401 199.659563,33.8779259 199.703515,34.0169096 L202.800356,42.6148916 C202.825302,42.6754742 202.839557,42.7324932 202.839557,42.7847605 C202.839557,42.9332474 202.65187,43.0068968 202.277683,43.0068968 L202.173148,43.0068968 C201.867859,43.0068968 201.693239,42.9379989 201.650474,42.7978274 L200.879531,40.6548653 L197.036691,40.6548653 L196.291881,42.7978274 C196.249117,42.9379989 196.075684,43.0068968 195.770396,43.0068968 L195.705061,43.0068968 C195.330874,43.0068968 195.143187,42.9332474 195.143187,42.7847605 L195.143187,42.7847605 Z" id="Fill-94" fill="#FFFFFF"></path>
                <path d="M71.5820607,55.1345892 C71.8790344,54.7223897 72.0275212,54.1676429 72.0275212,53.4703487 C72.0275212,52.9607419 71.9609991,52.541415 71.8303307,52.214744 C71.6996623,51.886885 71.4905928,51.6421787 71.2031223,51.4770614 C70.9156518,51.3131319 70.5355255,51.232355 70.0615555,51.232355 C69.8144734,51.232355 69.6291618,51.2596766 69.5056207,51.3155077 C69.3820797,51.3713387 69.2977392,51.4711219 69.2514113,51.6124814 C69.2050834,51.7550287 69.1813255,51.9676619 69.1813255,52.2491929 L69.1813255,55.7534824 L69.9795907,55.7534824 C70.7517223,55.7534824 71.285087,55.5479766 71.5820607,55.1345892 L71.5820607,55.1345892 Z M69.1813255,58.1245202 C69.1813255,58.4214939 69.2133986,58.6365028 69.2751692,58.7731107 C69.3357518,58.9073428 69.4486018,58.9999986 69.6101555,59.0498902 C69.7728971,59.0997818 70.0282944,59.130667 70.3787234,59.142546 L70.3787234,59.378937 C69.9712755,59.356367 69.390395,59.3444881 68.6384576,59.3444881 C67.9601697,59.3444881 67.4541266,59.356367 67.1238918,59.378937 L67.1238918,59.142546 C67.4089866,59.130667 67.6156802,59.0997818 67.7463487,59.0498902 C67.8746413,58.9999986 67.9625455,58.9073428 68.0112492,58.7731107 C68.058765,58.6365028 68.0837108,58.4214939 68.0837108,58.1245202 L68.0837108,52.2491929 C68.0837108,51.9522192 68.058765,51.7372103 68.0112492,51.6017903 C67.9625455,51.4663703 67.8746413,51.3737145 67.7463487,51.3238229 C67.6156802,51.2739314 67.4089866,51.2430461 67.1238918,51.232355 L67.1238918,50.9947761 C67.4505629,51.0173461 67.934036,51.029225 68.5695597,51.029225 C68.8784123,51.029225 69.2181502,51.0256614 69.5899613,51.0173461 C69.9617723,51.0090308 70.2183576,51.0054672 70.3561534,51.0054672 C70.9762344,51.0054672 71.5012839,51.1028745 71.928926,51.2988771 C72.3565681,51.4936919 72.6784875,51.7657198 72.8923086,52.1161487 C73.1049417,52.4677656 73.2130402,52.8764013 73.2130402,53.3420561 C73.2130402,53.7732619 73.1168207,54.1902129 72.9231939,54.5917213 C72.7307549,54.9920418 72.4017081,55.3258403 71.9372412,55.5919287 C71.4727744,55.8568292 70.8598207,55.9910613 70.0960044,55.9910613 L69.1813255,55.9910613 L69.1813255,58.1245202 Z" id="Fill-96" fill="#FFFFFF"></path>
                <path d="M77.2674436,56.0139877 C77.1320236,56.0900129 76.8504926,56.2337482 76.4228505,56.4416298 C76.1959626,56.5497282 76.0035237,56.6602024 75.8455337,56.7742403 C75.6863558,56.8870903 75.5521237,57.0415166 75.4404616,57.2339555 C75.3276116,57.4263945 75.2717805,57.6639734 75.2717805,57.9455045 C75.2717805,58.2888061 75.3596847,58.5477671 75.5319295,58.7223876 C75.70655,58.898196 75.9358137,58.9861003 76.2209084,58.9861003 C76.74477,58.9861003 77.1902305,58.6879387 77.5561021,58.0892397 L77.5561021,55.7657177 C77.4978952,55.8536219 77.4016757,55.9367745 77.2674436,56.0139877 M77.2698194,53.6061251 C77.0797563,53.437444 76.8077284,53.3542914 76.4572994,53.3542914 C75.8989889,53.3542914 75.5081716,53.494463 75.2836595,53.775994 C75.4416495,53.8140066 75.5735058,53.8983472 75.6792284,54.0278277 C75.7861389,54.1573082 75.8395942,54.3129224 75.8395942,54.4994219 C75.8395942,54.7001761 75.7754479,54.8557903 75.6519068,54.9698282 C75.52599,55.0838661 75.3573089,55.140885 75.1446758,55.140885 C74.9451095,55.140885 74.7871195,55.073175 74.6730816,54.9389429 C74.5602316,54.802335 74.5032126,54.6265266 74.5032126,54.4055782 C74.5032126,54.0979135 74.6885242,53.8163824 75.0591474,53.562173 C75.2515863,53.4350682 75.4891652,53.3281577 75.7718842,53.2438172 C76.0546031,53.1594766 76.3705831,53.1179003 76.7174484,53.1179003 C77.0417436,53.1179003 77.3268384,53.1571009 77.5739205,53.2355019 C77.8210026,53.3150909 78.0134415,53.4231893 78.1512373,53.562173 C78.3329852,53.7474845 78.4577141,53.9613056 78.5254241,54.2071998 C78.5919463,54.4519061 78.6263952,54.7904561 78.6263952,55.2216619 L78.6263952,58.5121303 C78.6263952,58.7093208 78.6537168,58.8518682 78.7095478,58.9397724 C78.7665668,59.0288645 78.8592226,59.0728166 78.989891,59.0728166 C79.0861105,59.0728166 79.1752026,59.0526224 79.2571673,59.0086703 C79.3367562,58.965906 79.4258483,58.9053234 79.5220678,58.8233587 L79.655112,59.0264887 C79.5173162,59.1310234 79.4009026,59.2106124 79.3082468,59.2688192 C79.2167789,59.327026 79.1098684,59.3733539 78.989891,59.4078029 C78.8711015,59.4434397 78.7321178,59.4600702 78.5741278,59.4600702 C78.1916257,59.4600702 77.9279131,59.3650387 77.7794263,59.1737876 C77.6309394,58.9837245 77.5561021,58.7271392 77.5561021,58.4087834 C77.3256505,58.7900976 77.0464952,59.0597497 76.7233879,59.2201155 C76.4002805,59.3804813 76.0700458,59.4600702 75.7350594,59.4600702 C75.4606558,59.4600702 75.2111979,59.4125545 74.9831221,59.3187108 C74.7562342,59.2236792 74.5732984,59.0775681 74.4366905,58.8791897 C74.3000826,58.6808113 74.2311847,58.4325413 74.2311847,58.1355676 C74.2311847,57.8350303 74.3048342,57.578445 74.4509453,57.3669998 C74.5970563,57.1555545 74.80375,56.969055 75.0698384,56.8086892 C75.3359268,56.6483234 75.6922952,56.4748908 76.1401315,56.2860156 C76.2161568,56.2551303 76.4050321,56.1779171 76.7055694,56.0543761 C77.0061068,55.930835 77.2234915,55.807294 77.3565357,55.6849408 C77.48958,55.5602119 77.5561021,55.4259798 77.5561021,55.2798687 L77.5561021,54.5457498 C77.5561021,54.0860345 77.4610705,53.7724303 77.2698194,53.6061251" id="Fill-98" fill="#FFFFFF"></path>
                <path d="M83.9690705,53.2901451 L83.9690705,53.5265361 L82.2169258,53.5265361 L82.2169258,58.1129976 C82.2169258,58.4705539 82.2810721,58.7283271 82.4093647,58.8851292 C82.5352816,59.0407434 82.7241568,59.1191445 82.9748026,59.1191445 C83.2218847,59.1191445 83.4321421,59.0205492 83.6043868,58.8233587 C83.7790073,58.627356 83.9251184,58.3042487 84.0439079,57.8528487 L84.2767352,57.9110555 C84.0831084,59.0015429 83.5699379,59.5479745 82.7384116,59.5479745 C82.4711353,59.5479745 82.2525626,59.5147134 82.0779421,59.451755 C81.9056974,59.3876087 81.7512711,59.2890134 81.6170389,59.1547813 C81.4459821,58.9801608 81.3260047,58.7663397 81.2582947,58.5145061 C81.188209,58.2626724 81.15376,57.9217466 81.15376,57.4941045 L81.15376,53.5265361 L80.014569,53.5265361 L80.014569,53.2901451 L81.15376,53.2901451 L81.15376,51.4809814 C81.5968447,51.4691025 81.9520253,51.4132714 82.2169258,51.3123004 L82.2169258,53.2901451 L83.9690705,53.2901451 Z" id="Fill-100" fill="#FFFFFF"></path>
                <path d="M87.9504184,56.0139877 C87.8149984,56.0900129 87.5334674,56.2337482 87.1058253,56.4416298 C86.8789374,56.5497282 86.6864985,56.6602024 86.5285085,56.7742403 C86.3693306,56.8870903 86.2350985,57.0415166 86.1234364,57.2339555 C86.0105864,57.4263945 85.9547553,57.6639734 85.9547553,57.9455045 C85.9547553,58.2888061 86.0426595,58.5477671 86.2149043,58.7223876 C86.3895248,58.898196 86.6187885,58.9861003 86.9038832,58.9861003 C87.4277448,58.9861003 87.8732053,58.6879387 88.2390769,58.0892397 L88.2390769,55.7657177 C88.18087,55.8536219 88.0846505,55.9367745 87.9504184,56.0139877 M87.9527942,53.6061251 C87.7627311,53.437444 87.4907032,53.3542914 87.1402742,53.3542914 C86.5819637,53.3542914 86.1911464,53.494463 85.9666343,53.775994 C86.1246243,53.8140066 86.2564806,53.8983472 86.3622032,54.0278277 C86.4691137,54.1573082 86.522569,54.3129224 86.522569,54.4994219 C86.522569,54.7001761 86.4584227,54.8557903 86.3348816,54.9698282 C86.2089648,55.0838661 86.0402837,55.140885 85.8276506,55.140885 C85.6280843,55.140885 85.4700943,55.073175 85.3560564,54.9389429 C85.2432064,54.802335 85.1861874,54.6265266 85.1861874,54.4055782 C85.1861874,54.0979135 85.371499,53.8163824 85.7421222,53.562173 C85.9345611,53.4350682 86.17214,53.3281577 86.454859,53.2438172 C86.7375779,53.1594766 87.0535579,53.1179003 87.4004232,53.1179003 C87.7247184,53.1179003 88.0098132,53.1571009 88.2568953,53.2355019 C88.5039774,53.3150909 88.6964163,53.4231893 88.8342121,53.562173 C89.01596,53.7474845 89.140689,53.9613056 89.208399,54.2071998 C89.2749211,54.4519061 89.30937,54.7904561 89.30937,55.2216619 L89.30937,58.5121303 C89.30937,58.7093208 89.3366916,58.8518682 89.3925226,58.9397724 C89.4495416,59.0288645 89.5421974,59.0728166 89.6728658,59.0728166 C89.7690853,59.0728166 89.8581774,59.0526224 89.9401421,59.0086703 C90.019731,58.965906 90.1088232,58.9053234 90.2050426,58.8233587 L90.3380868,59.0264887 C90.200291,59.1310234 90.0838774,59.2106124 89.9912216,59.2688192 C89.8997537,59.327026 89.7928432,59.3733539 89.6728658,59.4078029 C89.5540763,59.4434397 89.4150926,59.4600702 89.2571026,59.4600702 C88.8746005,59.4600702 88.6108879,59.3650387 88.4624011,59.1737876 C88.3139142,58.9837245 88.2390769,58.7271392 88.2390769,58.4087834 C88.0086253,58.7900976 87.72947,59.0597497 87.4063627,59.2201155 C87.0832553,59.3804813 86.7530206,59.4600702 86.4180343,59.4600702 C86.1436306,59.4600702 85.8941727,59.4125545 85.6660969,59.3187108 C85.439209,59.2236792 85.2562732,59.0775681 85.1196653,58.8791897 C84.9830574,58.6808113 84.9141595,58.4325413 84.9141595,58.1355676 C84.9141595,57.8350303 84.987809,57.578445 85.1339201,57.3669998 C85.2800311,57.1555545 85.4867248,56.969055 85.7528132,56.8086892 C86.0189016,56.6483234 86.37527,56.4748908 86.8231064,56.2860156 C86.8991316,56.2551303 87.0880069,56.1779171 87.3885442,56.0543761 C87.6890816,55.930835 87.9064663,55.807294 88.0395105,55.6849408 C88.1725548,55.5602119 88.2390769,55.4259798 88.2390769,55.2798687 L88.2390769,54.5457498 C88.2390769,54.0860345 88.1440453,53.7724303 87.9527942,53.6061251" id="Fill-102" fill="#FFFFFF"></path>
                <path d="M92.898,53.7031761 C92.7150642,53.9561976 92.6235963,54.3826518 92.6235963,54.9849145 C92.6235963,55.5859892 92.7150642,56.0124434 92.898,56.265465 C93.0797478,56.5172987 93.3482121,56.6444034 93.698641,56.6444034 C94.0538215,56.6444034 94.3210978,56.5184866 94.5052215,56.2678408 C94.6881573,56.017195 94.7796252,55.5895529 94.7796252,54.9849145 C94.7796252,54.3790882 94.6881573,53.9514461 94.5052215,53.7008003 C94.3210978,53.4501545 94.0538215,53.3254255 93.698641,53.3254255 C93.3482121,53.3254255 93.0797478,53.4513424 92.898,53.7031761 M92.0534068,59.5986976 C91.9120473,59.8184581 91.8419615,60.0429702 91.8419615,60.2698581 C91.8419615,60.5240676 91.92749,60.7367007 92.096171,60.9053818 C92.26604,61.0752507 92.4834247,61.2011675 92.7495131,61.2819444 C93.0167894,61.3627212 93.2900052,61.4031096 93.5703484,61.4031096 C93.9219652,61.4031096 94.2640789,61.3413391 94.601441,61.2154223 C94.9364273,61.0906933 95.210831,60.9018181 95.4270278,60.6487965 C95.6432247,60.3957749 95.7513231,60.090486 95.7513231,59.7317418 C95.7513231,59.5773155 95.7251894,59.4537744 95.672922,59.3599307 C95.6206547,59.2648991 95.5291868,59.1936255 95.3973304,59.1449218 C95.266662,59.097406 95.0849141,59.0736481 94.849711,59.0736481 L92.6461663,59.0736481 C92.3907689,59.2043165 92.1935784,59.378937 92.0534068,59.5986976 M96.1825289,58.3383413 C96.4379262,58.5117739 96.5662189,58.7909292 96.5662189,59.1769949 C96.5662189,59.5547455 96.4438657,59.9301202 96.1991594,60.3054949 C95.9544531,60.6784939 95.582642,60.9885344 95.0837262,61.2356165 C94.5836226,61.4826986 93.9742326,61.6050517 93.2531805,61.6050517 C92.840981,61.6050517 92.4525394,61.5634754 92.0878558,61.4815107 C91.72436,61.3983581 91.4297621,61.274817 91.2064379,61.1108875 C90.9831137,60.948146 90.8702637,60.7497675 90.8702637,60.5181281 C90.8702637,60.248476 91.012811,59.9871391 91.29553,59.7353055 C91.5794368,59.4822839 91.9334294,59.2625234 92.35632,59.0736481 L92.3171194,59.0736481 C92.0153942,59.0736481 91.7421784,59.0095018 91.4974721,58.8812092 C91.2527658,58.7552923 91.1316005,58.5177134 91.1316005,58.1708481 C91.1316005,57.901196 91.2420747,57.6446107 91.4665868,57.4010923 C91.689911,57.1587618 92.0724131,56.9164313 92.6117173,56.6729129 C92.2648521,56.5386808 91.9940121,56.3296113 91.8015731,56.0492681 C91.6091342,55.7665492 91.5129147,55.4113687 91.5129147,54.9849145 C91.5129147,54.3600818 91.712481,53.8920513 92.1116136,53.5820108 C92.5107463,53.2719703 93.0393594,53.117544 93.698641,53.117544 C94.0074936,53.117544 94.2866489,53.150805 94.5372947,53.2208908 C94.6133199,52.7813698 94.7534915,52.4309408 94.9530578,52.1684161 C95.1645031,51.9058914 95.4353431,51.7752229 95.763202,51.7752229 C95.9592046,51.7752229 96.1124431,51.8334298 96.2229173,51.9486556 C96.3333915,52.0638813 96.3880346,52.2123682 96.3880346,52.3929282 C96.3880346,52.5556698 96.3333915,52.6899019 96.2252931,52.7980003 C96.1171946,52.9060987 95.9829625,52.9607419 95.820221,52.9607419 C95.6206547,52.9607419 95.4757315,52.9001592 95.3878273,52.778994 C95.2987352,52.6566408 95.233401,52.4689534 95.1906368,52.214744 C95.0742231,52.3192787 94.9685005,52.5117177 94.872281,52.7920608 C94.8140741,52.9666813 94.7736857,53.1306108 94.7511157,53.2838492 C95.108672,53.4157055 95.3890152,53.6235871 95.5897694,53.9063061 C95.7905236,54.189025 95.8903068,54.5489571 95.8903068,54.9849145 C95.8903068,55.4054292 95.7952752,55.7546702 95.6063999,56.0338255 C95.4175247,56.3129808 95.1585636,56.5208623 94.8318926,56.6550944 C94.5040336,56.7917023 94.1262831,56.8582244 93.698641,56.8582244 C93.3779094,56.8582244 93.0868752,56.8213997 92.8243505,56.7477502 C92.5048068,56.9176192 92.2601005,57.0756092 92.0878558,57.2193444 C91.9167989,57.3642676 91.8312705,57.5198818 91.8312705,57.6849992 C91.8312705,57.8156676 91.8752226,57.9142628 91.9643147,57.980785 C92.0522189,58.0449313 92.1971421,58.0781923 92.3967084,58.0781923 L95.1787578,58.0781923 C95.5921452,58.0781923 95.9259436,58.1649086 96.1825289,58.3383413" id="Fill-104" fill="#FFFFFF"></path>
                <path d="M99.1959802,54.0824708 C98.9203886,54.5683198 98.7825928,55.3202571 98.7825928,56.337095 C98.7825928,57.3515571 98.9203886,58.1011187 99.1959802,58.5845918 C99.4703839,59.068065 99.8469465,59.3092076 100.319729,59.3092076 C100.794886,59.3092076 101.169073,59.068065 101.445853,58.5845918 C101.721444,58.1011187 101.858052,57.3515571 101.858052,56.337095 C101.858052,55.3202571 101.721444,54.5683198 101.445853,54.0824708 C101.169073,53.5966219 100.794886,53.3542914 100.319729,53.3542914 C99.8469465,53.3542914 99.4703839,53.5966219 99.1959802,54.0824708 M101.704814,53.4588261 C102.108698,53.685714 102.427054,54.0397066 102.659881,54.5184282 C102.892709,54.9983377 103.009122,55.6053519 103.009122,56.337095 C103.009122,57.0700261 102.892709,57.6746645 102.659881,58.1533861 C102.427054,58.6309197 102.108698,58.9837245 101.704814,59.2082366 C101.302118,59.4339366 100.841214,59.5479745 100.319729,59.5479745 C99.8006186,59.5479745 99.3385276,59.4339366 98.9358312,59.2082366 C98.531947,58.9837245 98.2147791,58.6309197 97.9819518,58.1533861 C97.7479365,57.6746645 97.6327107,57.0700261 97.6327107,56.337095 C97.6327107,55.6053519 97.7479365,54.9983377 97.9819518,54.5184282 C98.2147791,54.0397066 98.531947,53.685714 98.9358312,53.4588261 C99.3385276,53.2307503 99.8006186,53.1179003 100.319729,53.1179003 C100.841214,53.1179003 101.302118,53.2307503 101.704814,53.4588261" id="Fill-106" fill="#FFFFFF"></path>
                <path d="M106.991539,53.4549061 C107.344344,53.230394 107.742289,53.117544 108.186561,53.117544 C108.737745,53.117544 109.154696,53.2648429 109.440978,53.5618166 C109.588277,53.7245582 109.691624,53.9241245 109.75577,54.1605155 C109.819917,54.3980945 109.850802,54.7164503 109.850802,55.1167708 L109.850802,58.2801344 C109.850802,58.4998949 109.881687,58.6721397 109.939894,58.7956807 C110.000477,58.9192218 110.09432,59.0059381 110.224989,59.0558297 C110.353281,59.1057213 110.530278,59.130667 110.753602,59.130667 L110.753602,59.378937 C110.028986,59.3480518 109.553828,59.3326091 109.331692,59.3326091 C109.110743,59.3326091 108.670035,59.3480518 108.006001,59.378937 L108.006001,59.130667 C108.20438,59.130667 108.35643,59.1057213 108.465717,59.0558297 C108.576191,59.0059381 108.656968,58.9192218 108.709235,58.7956807 C108.761502,58.6721397 108.787636,58.4998949 108.787636,58.2801344 L108.787636,54.8578097 C108.787636,54.5715271 108.765066,54.3327603 108.721114,54.1403213 C108.675974,53.9478824 108.584506,53.7910803 108.443147,53.6722908 C108.302975,53.5523134 108.097469,53.4929187 107.827817,53.4929187 C107.503522,53.4929187 107.214863,53.5867624 106.96303,53.7768255 C106.711196,53.9657008 106.515194,54.223474 106.375022,54.5537087 C106.237226,54.8827555 106.168328,55.2486271 106.168328,55.6501355 L106.168328,58.2801344 C106.168328,58.4998949 106.193274,58.6721397 106.245541,58.7956807 C106.297809,58.9192218 106.379774,59.0059381 106.491436,59.0558297 C106.603098,59.1057213 106.757524,59.130667 106.954715,59.130667 L106.954715,59.378937 C106.290681,59.3480518 105.847597,59.3326091 105.624272,59.3326091 C105.400948,59.3326091 104.926978,59.3480518 104.201175,59.378937 L104.201175,59.130667 C104.425687,59.130667 104.601495,59.1057213 104.730976,59.0558297 C104.860456,59.0059381 104.9543,58.9192218 105.013695,58.7956807 C105.074277,58.6721397 105.103975,58.4998949 105.103975,58.2801344 L105.103975,54.5739029 C105.103975,54.2080313 105.036265,53.9419429 104.904408,53.7768255 C104.771364,53.6105203 104.537349,53.5273676 104.201175,53.5273676 L104.201175,53.2790976 C104.448257,53.3016676 104.692963,53.3135466 104.936481,53.3135466 C105.436585,53.3135466 105.847597,53.2600913 106.168328,53.150805 L106.168328,54.5453934 C106.364331,54.0441018 106.638735,53.6806061 106.991539,53.4549061" id="Fill-108" fill="#FFFFFF"></path>
                <path d="M113.299854,50.4224484 C113.41508,50.4913463 113.507736,50.5840021 113.576634,50.6992279 C113.646719,50.8156416 113.681168,50.9415584 113.681168,51.0757905 C113.681168,51.2100226 113.646719,51.3371274 113.576634,51.453541 C113.507736,51.5723305 113.41508,51.6649863 113.299854,51.7326963 C113.183441,51.7992184 113.058712,51.8324795 112.924479,51.8324795 C112.787872,51.8324795 112.661955,51.7992184 112.544353,51.7326963 C112.427939,51.6649863 112.335284,51.5723305 112.267574,51.453541 C112.199864,51.3371274 112.166603,51.2100226 112.166603,51.0757905 C112.166603,50.9415584 112.199864,50.8156416 112.267574,50.6992279 C112.335284,50.5840021 112.427939,50.4913463 112.544353,50.4224484 C112.661955,50.3523626 112.787872,50.3179137 112.924479,50.3179137 C113.058712,50.3179137 113.183441,50.3523626 113.299854,50.4224484 M113.625337,58.7959183 C113.68592,58.9182715 113.779764,59.0061757 113.909244,59.0560673 C114.038725,59.1059588 114.215721,59.1309046 114.439045,59.1309046 L114.439045,59.3791746 C113.714429,59.3482894 113.235708,59.3328467 113.004068,59.3328467 C112.773617,59.3328467 112.294895,59.3482894 111.570279,59.3791746 L111.570279,59.1309046 C111.793604,59.1309046 111.9706,59.1059588 112.098893,59.0560673 C112.229561,59.0061757 112.323405,58.9182715 112.382799,58.7959183 C112.442194,58.6711894 112.473079,58.5001325 112.473079,58.280372 L112.473079,54.5741405 C112.473079,54.2082689 112.405369,53.9421805 112.273513,53.7758752 C112.139281,53.6107579 111.905266,53.5264173 111.570279,53.5264173 L111.570279,53.2781473 C111.817362,53.3019052 112.062068,53.3137842 112.304398,53.3137842 C112.80569,53.3137842 113.216702,53.2603289 113.536245,53.1510426 L113.536245,58.280372 C113.536245,58.5001325 113.567131,58.6711894 113.625337,58.7959183" id="Fill-110" fill="#FFFFFF"></path>
                <path d="M118.493449,56.0139877 C118.358029,56.0900129 118.076498,56.2337482 117.648856,56.4416298 C117.421968,56.5497282 117.229529,56.6602024 117.071539,56.7742403 C116.912361,56.8870903 116.778129,57.0415166 116.666467,57.2339555 C116.553617,57.4263945 116.497786,57.6639734 116.497786,57.9455045 C116.497786,58.2888061 116.58569,58.5477671 116.757935,58.7223876 C116.932555,58.898196 117.161819,58.9861003 117.446913,58.9861003 C117.970775,58.9861003 118.416236,58.6879387 118.782107,58.0892397 L118.782107,55.7657177 C118.7239,55.8536219 118.627681,55.9367745 118.493449,56.0139877 M118.495825,53.6061251 C118.305761,53.437444 118.033733,53.3542914 117.683305,53.3542914 C117.124994,53.3542914 116.734177,53.494463 116.509665,53.775994 C116.667655,53.8140066 116.799511,53.8983472 116.905233,54.0278277 C117.012144,54.1573082 117.065599,54.3129224 117.065599,54.4994219 C117.065599,54.7001761 117.001453,54.8557903 116.877912,54.9698282 C116.751995,55.0838661 116.583314,55.140885 116.370681,55.140885 C116.171115,55.140885 116.013125,55.073175 115.899087,54.9389429 C115.786237,54.802335 115.729218,54.6265266 115.729218,54.4055782 C115.729218,54.0979135 115.914529,53.8163824 116.285152,53.562173 C116.477591,53.4350682 116.71517,53.3281577 116.997889,53.2438172 C117.280608,53.1594766 117.596588,53.1179003 117.943453,53.1179003 C118.267749,53.1179003 118.552843,53.1571009 118.799926,53.2355019 C119.047008,53.3150909 119.239447,53.4231893 119.377242,53.562173 C119.55899,53.7474845 119.683719,53.9613056 119.751429,54.2071998 C119.817951,54.4519061 119.8524,54.7904561 119.8524,55.2216619 L119.8524,58.5121303 C119.8524,58.7093208 119.879722,58.8518682 119.935553,58.9397724 C119.992572,59.0288645 120.085228,59.0728166 120.215896,59.0728166 C120.312116,59.0728166 120.401208,59.0526224 120.483172,59.0086703 C120.562761,58.965906 120.651853,58.9053234 120.748073,58.8233587 L120.881117,59.0264887 C120.743321,59.1310234 120.626908,59.2106124 120.534252,59.2688192 C120.442784,59.327026 120.335873,59.3733539 120.215896,59.4078029 C120.097107,59.4434397 119.958123,59.4600702 119.800133,59.4600702 C119.417631,59.4600702 119.153918,59.3650387 119.005431,59.1737876 C118.856944,58.9837245 118.782107,58.7271392 118.782107,58.4087834 C118.551656,58.7900976 118.2725,59.0597497 117.949393,59.2201155 C117.626286,59.3804813 117.296051,59.4600702 116.961065,59.4600702 C116.686661,59.4600702 116.437203,59.4125545 116.209127,59.3187108 C115.982239,59.2236792 115.799303,59.0775681 115.662696,58.8791897 C115.526088,58.6808113 115.45719,58.4325413 115.45719,58.1355676 C115.45719,57.8350303 115.530839,57.578445 115.67695,57.3669998 C115.823061,57.1555545 116.029755,56.969055 116.295843,56.8086892 C116.561932,56.6483234 116.9183,56.4748908 117.366137,56.2860156 C117.442162,56.2551303 117.631037,56.1779171 117.931575,56.0543761 C118.232112,55.930835 118.449497,55.807294 118.582541,55.6849408 C118.715585,55.5602119 118.782107,55.4259798 118.782107,55.2798687 L118.782107,54.5457498 C118.782107,54.0860345 118.687076,53.7724303 118.495825,53.6061251" id="Fill-112" fill="#FFFFFF"></path>
                <path d="M127.197391,52.4340293 L125.838439,55.9680161 L128.521894,55.9680161 L127.197391,52.4340293 Z M131.425108,59.1420708 L131.425108,59.3796498 C131.100813,59.3558919 130.676735,59.3440129 130.151685,59.3440129 C129.478149,59.3440129 128.973294,59.3558919 128.637119,59.3796498 L128.637119,59.1420708 C128.938845,59.1313798 129.152666,59.0933671 129.282146,59.0327845 C129.411627,58.971014 129.475773,58.8605398 129.475773,58.7025498 C129.475773,58.5683177 129.429445,58.3830061 129.337977,58.147803 L128.60861,56.2044072 L125.751723,56.2044072 L125.265874,57.458824 C125.107884,57.8603324 125.029483,58.1846277 125.029483,58.4317098 C125.029483,58.6823556 125.112636,58.8605398 125.281317,58.9686382 C125.447622,59.0767366 125.707771,59.1349435 126.0582,59.1420708 L126.0582,59.3796498 C125.6068,59.3558919 125.151836,59.3440129 124.694497,59.3440129 C124.339316,59.3440129 124.044718,59.3558919 123.808327,59.3796498 L123.808327,59.1420708 C124.202708,59.0529787 124.512749,58.7096772 124.740825,58.1121661 L127.526438,50.9360941 L127.717689,50.9360941 L130.603085,58.3853819 C130.795524,58.8747945 131.069928,59.1266282 131.425108,59.1420708 L131.425108,59.1420708 Z" id="Fill-114" fill="#FFFFFF"></path>
                <path d="M134.330461,53.914265 C134.499142,53.6838134 134.698708,53.4937502 134.92916,53.3428876 C135.1608,53.192025 135.405506,53.1171876 135.663279,53.1171876 C135.872348,53.1171876 136.05766,53.157576 136.22159,53.2419165 C136.385519,53.3238813 136.513812,53.4367313 136.606467,53.5792786 C136.699123,53.721826 136.745451,53.8786281 136.745451,54.0473092 C136.745451,54.2563786 136.682493,54.4333749 136.56014,54.5771102 C136.436598,54.7220334 136.272669,54.793307 136.068351,54.793307 C135.894918,54.793307 135.746432,54.7386639 135.624078,54.6293776 C135.49935,54.5189034 135.438767,54.3704165 135.438767,54.1815413 C135.438767,53.9225802 135.572999,53.7087592 135.842651,53.5388902 C135.789196,53.4616771 135.706043,53.4236644 135.594381,53.4236644 C135.281965,53.4236644 135.000434,53.5436418 134.750976,53.7824086 C134.50033,54.0211755 134.30314,54.3157734 134.159404,54.6662023 C134.016857,55.0178192 133.946771,55.3444902 133.946771,55.6497791 L133.946771,58.1586128 C133.946771,58.5256723 134.051306,58.7786938 134.258,58.9200533 C134.467069,59.0602249 134.780673,59.1314986 135.201188,59.1314986 L135.201188,59.3797686 C134.22949,59.3476954 133.622476,59.3334407 133.378957,59.3334407 C133.171076,59.3334407 132.705421,59.3476954 131.979617,59.3797686 L131.979617,59.1314986 C132.20413,59.1314986 132.379938,59.1053649 132.509419,59.0554733 C132.638899,59.0055817 132.732743,58.9188654 132.792137,58.7953244 C132.85272,58.6717833 132.882417,58.4995386 132.882417,58.2809659 L132.882417,54.5747344 C132.882417,54.207675 132.815895,53.9415865 132.682851,53.7764692 C132.549807,53.6101639 132.315792,53.5270113 131.979617,53.5270113 L131.979617,53.2787413 C132.2267,53.3013113 132.472594,53.3131902 132.714924,53.3131902 C133.216216,53.3131902 133.62604,53.259735 133.946771,53.1504486 L133.946771,54.6317534 C134.034675,54.3846713 134.162968,54.1459044 134.330461,53.914265" id="Fill-116" fill="#FFFFFF"></path>
                <path d="M139.456821,53.7031761 C139.273885,53.9561976 139.182417,54.3826518 139.182417,54.9849145 C139.182417,55.5859892 139.273885,56.0124434 139.456821,56.265465 C139.638569,56.5172987 139.907033,56.6444034 140.257462,56.6444034 C140.612642,56.6444034 140.879919,56.5184866 141.064042,56.2678408 C141.246978,56.017195 141.338446,55.5895529 141.338446,54.9849145 C141.338446,54.3790882 141.246978,53.9514461 141.064042,53.7008003 C140.879919,53.4501545 140.612642,53.3254255 140.257462,53.3254255 C139.907033,53.3254255 139.638569,53.4513424 139.456821,53.7031761 M138.612228,59.5986976 C138.470868,59.8184581 138.400782,60.0429702 138.400782,60.2698581 C138.400782,60.5240676 138.486311,60.7367007 138.654992,60.9053818 C138.824861,61.0752507 139.042246,61.2011675 139.308334,61.2819444 C139.57561,61.3627212 139.848826,61.4031096 140.129169,61.4031096 C140.480786,61.4031096 140.8229,61.3413391 141.160262,61.2154223 C141.495248,61.0906933 141.769652,60.9018181 141.985849,60.6487965 C142.202045,60.3957749 142.310144,60.090486 142.310144,59.7317418 C142.310144,59.5773155 142.28401,59.4537744 142.231743,59.3599307 C142.179475,59.2648991 142.088008,59.1936255 141.956151,59.1449218 C141.825483,59.097406 141.643735,59.0736481 141.408532,59.0736481 L139.204987,59.0736481 C138.94959,59.2043165 138.752399,59.378937 138.612228,59.5986976 M142.74135,58.3383413 C142.996747,58.5117739 143.12504,58.7909292 143.12504,59.1769949 C143.12504,59.5547455 143.002687,59.9301202 142.75798,60.3054949 C142.513274,60.6784939 142.141463,60.9885344 141.642547,61.2356165 C141.142443,61.4826986 140.533053,61.6050517 139.812001,61.6050517 C139.399802,61.6050517 139.01136,61.5634754 138.646677,61.4815107 C138.283181,61.3983581 137.988583,61.274817 137.765259,61.1108875 C137.541935,60.948146 137.429085,60.7497675 137.429085,60.5181281 C137.429085,60.248476 137.571632,59.9871391 137.854351,59.7353055 C138.138258,59.4822839 138.49225,59.2625234 138.915141,59.0736481 L138.87594,59.0736481 C138.574215,59.0736481 138.300999,59.0095018 138.056293,58.8812092 C137.811587,58.7552923 137.690421,58.5177134 137.690421,58.1708481 C137.690421,57.901196 137.800896,57.6446107 138.025408,57.4010923 C138.248732,57.1587618 138.631234,56.9164313 139.170538,56.6729129 C138.823673,56.5386808 138.552833,56.3296113 138.360394,56.0492681 C138.167955,55.7665492 138.071736,55.4113687 138.071736,54.9849145 C138.071736,54.3600818 138.271302,53.8920513 138.670434,53.5820108 C139.069567,53.2719703 139.59818,53.117544 140.257462,53.117544 C140.566314,53.117544 140.84547,53.150805 141.096116,53.2208908 C141.172141,52.7813698 141.312312,52.4309408 141.511879,52.1684161 C141.723324,51.9058914 141.994164,51.7752229 142.322023,51.7752229 C142.518025,51.7752229 142.671264,51.8334298 142.781738,51.9486556 C142.892212,52.0638813 142.946855,52.2123682 142.946855,52.3929282 C142.946855,52.5556698 142.892212,52.6899019 142.784114,52.7980003 C142.676015,52.9060987 142.541783,52.9607419 142.379042,52.9607419 C142.179475,52.9607419 142.034552,52.9001592 141.946648,52.778994 C141.857556,52.6566408 141.792222,52.4689534 141.749458,52.214744 C141.633044,52.3192787 141.527321,52.5117177 141.431102,52.7920608 C141.372895,52.9666813 141.332507,53.1306108 141.309937,53.2838492 C141.667493,53.4157055 141.947836,53.6235871 142.14859,53.9063061 C142.349344,54.189025 142.449128,54.5489571 142.449128,54.9849145 C142.449128,55.4054292 142.354096,55.7546702 142.165221,56.0338255 C141.976346,56.3129808 141.717384,56.5208623 141.390713,56.6550944 C141.062854,56.7917023 140.685104,56.8582244 140.257462,56.8582244 C139.93673,56.8582244 139.645696,56.8213997 139.383171,56.7477502 C139.063628,56.9176192 138.818921,57.0756092 138.646677,57.2193444 C138.47562,57.3642676 138.390091,57.5198818 138.390091,57.6849992 C138.390091,57.8156676 138.434043,57.9142628 138.523136,57.980785 C138.61104,58.0449313 138.755963,58.0781923 138.955529,58.0781923 L141.737579,58.0781923 C142.150966,58.0781923 142.484764,58.1649086 142.74135,58.3383413" id="Fill-118" fill="#FFFFFF"></path>
                <path d="M147.833498,54.4118741 C147.752721,54.085203 147.624429,53.8238662 147.452184,53.6314272 C147.277563,53.4389883 147.06493,53.3427688 146.810721,53.3427688 C146.567202,53.3427688 146.343878,53.419982 146.138372,53.5767841 C145.934054,53.7323983 145.762998,53.9711651 145.621638,54.2930846 C145.481466,54.6150041 145.391186,55.0153246 145.351986,55.4928582 L147.932093,55.4928582 C147.947536,55.0996651 147.914275,54.739733 147.833498,54.4118741 M148.674527,58.7346229 C148.472585,58.9757656 148.219564,59.1717682 147.916651,59.3214429 C147.613737,59.4723056 147.276375,59.5471429 146.902189,59.5471429 C146.339126,59.5471429 145.853278,59.4188503 145.442266,59.162265 C145.032442,58.9056798 144.718838,58.5445598 144.502641,58.0812808 C144.287632,57.616814 144.179534,57.0810735 144.179534,56.4764351 C144.179534,55.7898319 144.28882,55.1946967 144.508581,54.6886535 C144.728341,54.1849862 145.038382,53.7953567 145.442266,53.5245167 C145.844962,53.2524888 146.316556,53.1170688 146.857049,53.1170688 C147.565034,53.1170688 148.111465,53.3320778 148.496343,53.7609077 C148.878845,54.1909256 149.071284,54.8430798 149.071284,55.7197461 L145.369804,55.7197461 C145.342483,55.9228761 145.330604,56.1747098 145.330604,56.4764351 C145.330604,56.996733 145.414944,57.4516966 145.586001,57.8413261 C145.758246,58.2309556 145.982758,58.5291172 146.260725,58.7381866 C146.537505,58.9448803 146.830915,59.049415 147.139767,59.049415 C147.933281,59.049415 148.512974,58.6538461 148.880033,57.8638961 L149.117612,57.9565519 C149.024956,58.2345193 148.877657,58.4946682 148.674527,58.7346229" id="Fill-120" fill="#FFFFFF"></path>
                <path d="M153.052632,53.4549061 C153.405437,53.230394 153.803382,53.117544 154.247654,53.117544 C154.798837,53.117544 155.215789,53.2648429 155.502071,53.5618166 C155.64937,53.7245582 155.752717,53.9241245 155.816863,54.1605155 C155.88101,54.3980945 155.911895,54.7164503 155.911895,55.1167708 L155.911895,58.2801344 C155.911895,58.4998949 155.94278,58.6721397 156.000987,58.7956807 C156.06157,58.9192218 156.155413,59.0059381 156.286082,59.0558297 C156.414374,59.1057213 156.591371,59.130667 156.814695,59.130667 L156.814695,59.378937 C156.090079,59.3480518 155.614921,59.3326091 155.392785,59.3326091 C155.171836,59.3326091 154.731127,59.3480518 154.067094,59.378937 L154.067094,59.130667 C154.265473,59.130667 154.417523,59.1057213 154.52681,59.0558297 C154.637284,59.0059381 154.718061,58.9192218 154.770328,58.7956807 C154.822595,58.6721397 154.848729,58.4998949 154.848729,58.2801344 L154.848729,54.8578097 C154.848729,54.5715271 154.826159,54.3327603 154.782207,54.1403213 C154.737067,53.9478824 154.645599,53.7910803 154.50424,53.6722908 C154.364068,53.5523134 154.158562,53.4929187 153.88891,53.4929187 C153.564615,53.4929187 153.275956,53.5867624 153.024123,53.7768255 C152.772289,53.9657008 152.576286,54.223474 152.436115,54.5537087 C152.298319,54.8827555 152.229421,55.2486271 152.229421,55.6501355 L152.229421,58.2801344 C152.229421,58.4998949 152.254367,58.6721397 152.306634,58.7956807 C152.358902,58.9192218 152.440866,59.0059381 152.552529,59.0558297 C152.664191,59.1057213 152.818617,59.130667 153.015808,59.130667 L153.015808,59.378937 C152.351774,59.3480518 151.90869,59.3326091 151.685365,59.3326091 C151.462041,59.3326091 150.988071,59.3480518 150.262268,59.378937 L150.262268,59.130667 C150.48678,59.130667 150.662588,59.1057213 150.792069,59.0558297 C150.921549,59.0059381 151.015393,58.9192218 151.074788,58.7956807 C151.13537,58.6721397 151.165068,58.4998949 151.165068,58.2801344 L151.165068,54.5739029 C151.165068,54.2080313 151.097358,53.9419429 150.965501,53.7768255 C150.832457,53.6105203 150.598442,53.5273676 150.262268,53.5273676 L150.262268,53.2790976 C150.50935,53.3016676 150.754056,53.3135466 150.997574,53.3135466 C151.497678,53.3135466 151.90869,53.2600913 152.229421,53.150805 L152.229421,54.5453934 C152.425424,54.0441018 152.699828,53.6806061 153.052632,53.4549061" id="Fill-122" fill="#FFFFFF"></path>
                <path d="M161.295909,53.2901451 L161.295909,53.5265361 L159.543764,53.5265361 L159.543764,58.1129976 C159.543764,58.4705539 159.60791,58.7283271 159.736203,58.8851292 C159.86212,59.0407434 160.050995,59.1191445 160.301641,59.1191445 C160.548723,59.1191445 160.75898,59.0205492 160.931225,58.8233587 C161.105846,58.627356 161.251957,58.3042487 161.370746,57.8528487 L161.603574,57.9110555 C161.409947,59.0015429 160.896776,59.5479745 160.06525,59.5479745 C159.797974,59.5479745 159.579401,59.5147134 159.40478,59.451755 C159.232536,59.3876087 159.078109,59.2890134 158.943877,59.1547813 C158.77282,58.9801608 158.652843,58.7663397 158.585133,58.5145061 C158.515047,58.2626724 158.480598,57.9217466 158.480598,57.4941045 L158.480598,53.5265361 L157.341407,53.5265361 L157.341407,53.2901451 L158.480598,53.2901451 L158.480598,51.4809814 C158.923683,51.4691025 159.278864,51.4132714 159.543764,51.3123004 L159.543764,53.2901451 L161.295909,53.2901451 Z" id="Fill-124" fill="#FFFFFF"></path>
                <path d="M163.84917,50.4224484 C163.964396,50.4913463 164.057051,50.5840021 164.125949,50.6992279 C164.196035,50.8156416 164.230484,50.9415584 164.230484,51.0757905 C164.230484,51.2100226 164.196035,51.3371274 164.125949,51.453541 C164.057051,51.5723305 163.964396,51.6649863 163.84917,51.7326963 C163.732756,51.7992184 163.608027,51.8324795 163.473795,51.8324795 C163.337187,51.8324795 163.21127,51.7992184 163.093669,51.7326963 C162.977255,51.6649863 162.884599,51.5723305 162.816889,51.453541 C162.749179,51.3371274 162.715918,51.2100226 162.715918,51.0757905 C162.715918,50.9415584 162.749179,50.8156416 162.816889,50.6992279 C162.884599,50.5840021 162.977255,50.4913463 163.093669,50.4224484 C163.21127,50.3523626 163.337187,50.3179137 163.473795,50.3179137 C163.608027,50.3179137 163.732756,50.3523626 163.84917,50.4224484 M164.174653,58.7959183 C164.235236,58.9182715 164.329079,59.0061757 164.45856,59.0560673 C164.58804,59.1059588 164.765037,59.1309046 164.988361,59.1309046 L164.988361,59.3791746 C164.263745,59.3482894 163.785023,59.3328467 163.553384,59.3328467 C163.322932,59.3328467 162.844211,59.3482894 162.119595,59.3791746 L162.119595,59.1309046 C162.342919,59.1309046 162.519916,59.1059588 162.648208,59.0560673 C162.778877,59.0061757 162.87272,58.9182715 162.932115,58.7959183 C162.99151,58.6711894 163.022395,58.5001325 163.022395,58.280372 L163.022395,54.5741405 C163.022395,54.2082689 162.954685,53.9421805 162.822829,53.7758752 C162.688597,53.6107579 162.454581,53.5264173 162.119595,53.5264173 L162.119595,53.2781473 C162.366677,53.3019052 162.611383,53.3137842 162.853714,53.3137842 C163.355006,53.3137842 163.766017,53.2603289 164.085561,53.1510426 L164.085561,58.280372 C164.085561,58.5001325 164.116446,58.6711894 164.174653,58.7959183" id="Fill-126" fill="#FFFFFF"></path>
                <path d="M168.674992,53.4549061 C169.027797,53.230394 169.425742,53.117544 169.870014,53.117544 C170.421197,53.117544 170.838148,53.2648429 171.124431,53.5618166 C171.27173,53.7245582 171.375077,53.9241245 171.439223,54.1605155 C171.503369,54.3980945 171.534255,54.7164503 171.534255,55.1167708 L171.534255,58.2801344 C171.534255,58.4998949 171.56514,58.6721397 171.623347,58.7956807 C171.683929,58.9192218 171.777773,59.0059381 171.908442,59.0558297 C172.036734,59.1057213 172.21373,59.130667 172.437055,59.130667 L172.437055,59.378937 C171.712439,59.3480518 171.237281,59.3326091 171.015145,59.3326091 C170.794196,59.3326091 170.353487,59.3480518 169.689454,59.378937 L169.689454,59.130667 C169.887833,59.130667 170.039883,59.1057213 170.149169,59.0558297 C170.259644,59.0059381 170.34042,58.9192218 170.392688,58.7956807 C170.444955,58.6721397 170.471089,58.4998949 170.471089,58.2801344 L170.471089,54.8578097 C170.471089,54.5715271 170.448519,54.3327603 170.404567,54.1403213 C170.359427,53.9478824 170.267959,53.7910803 170.126599,53.6722908 C169.986428,53.5523134 169.780922,53.4929187 169.51127,53.4929187 C169.186975,53.4929187 168.898316,53.5867624 168.646483,53.7768255 C168.394649,53.9657008 168.198646,54.223474 168.058475,54.5537087 C167.920679,54.8827555 167.851781,55.2486271 167.851781,55.6501355 L167.851781,58.2801344 C167.851781,58.4998949 167.876727,58.6721397 167.928994,58.7956807 C167.981262,58.9192218 168.063226,59.0059381 168.174888,59.0558297 C168.286551,59.1057213 168.440977,59.130667 168.638167,59.130667 L168.638167,59.378937 C167.974134,59.3480518 167.531049,59.3326091 167.307725,59.3326091 C167.084401,59.3326091 166.610431,59.3480518 165.884627,59.378937 L165.884627,59.130667 C166.109139,59.130667 166.284948,59.1057213 166.414428,59.0558297 C166.543909,59.0059381 166.637753,58.9192218 166.697147,58.7956807 C166.75773,58.6721397 166.787427,58.4998949 166.787427,58.2801344 L166.787427,54.5739029 C166.787427,54.2080313 166.719717,53.9419429 166.587861,53.7768255 C166.454817,53.6105203 166.220802,53.5273676 165.884627,53.5273676 L165.884627,53.2790976 C166.131709,53.3016676 166.376416,53.3135466 166.619934,53.3135466 C167.120038,53.3135466 167.531049,53.2600913 167.851781,53.150805 L167.851781,54.5453934 C168.047784,54.0441018 168.322187,53.6806061 168.674992,53.4549061" id="Fill-128" fill="#FFFFFF"></path>
                <path d="M176.410325,56.0139877 C176.274905,56.0900129 175.993374,56.2337482 175.565732,56.4416298 C175.338844,56.5497282 175.146405,56.6602024 174.988415,56.7742403 C174.829237,56.8870903 174.695005,57.0415166 174.583343,57.2339555 C174.470493,57.4263945 174.414662,57.6639734 174.414662,57.9455045 C174.414662,58.2888061 174.502566,58.5477671 174.674811,58.7223876 C174.849431,58.898196 175.078695,58.9861003 175.36379,58.9861003 C175.887651,58.9861003 176.333112,58.6879387 176.698983,58.0892397 L176.698983,55.7657177 C176.640777,55.8536219 176.544557,55.9367745 176.410325,56.0139877 M176.412701,53.6061251 C176.222638,53.437444 175.95061,53.3542914 175.600181,53.3542914 C175.04187,53.3542914 174.651053,53.494463 174.426541,53.775994 C174.584531,53.8140066 174.716387,53.8983472 174.82211,54.0278277 C174.92902,54.1573082 174.982475,54.3129224 174.982475,54.4994219 C174.982475,54.7001761 174.918329,54.8557903 174.794788,54.9698282 C174.668871,55.0838661 174.50019,55.140885 174.287557,55.140885 C174.087991,55.140885 173.930001,55.073175 173.815963,54.9389429 C173.703113,54.802335 173.646094,54.6265266 173.646094,54.4055782 C173.646094,54.0979135 173.831405,53.8163824 174.202029,53.562173 C174.394468,53.4350682 174.632047,53.3281577 174.914765,53.2438172 C175.197484,53.1594766 175.513464,53.1179003 175.86033,53.1179003 C176.184625,53.1179003 176.46972,53.1571009 176.716802,53.2355019 C176.963884,53.3150909 177.156323,53.4231893 177.294119,53.562173 C177.475866,53.7474845 177.600595,53.9613056 177.668305,54.2071998 C177.734828,54.4519061 177.769276,54.7904561 177.769276,55.2216619 L177.769276,58.5121303 C177.769276,58.7093208 177.796598,58.8518682 177.852429,58.9397724 C177.909448,59.0288645 178.002104,59.0728166 178.132772,59.0728166 C178.228992,59.0728166 178.318084,59.0526224 178.400049,59.0086703 C178.479638,58.965906 178.56873,58.9053234 178.664949,58.8233587 L178.797993,59.0264887 C178.660198,59.1310234 178.543784,59.2106124 178.451128,59.2688192 C178.35966,59.327026 178.25275,59.3733539 178.132772,59.4078029 C178.013983,59.4434397 177.874999,59.4600702 177.717009,59.4600702 C177.334507,59.4600702 177.070794,59.3650387 176.922308,59.1737876 C176.773821,58.9837245 176.698983,58.7271392 176.698983,58.4087834 C176.468532,58.7900976 176.189377,59.0597497 175.866269,59.2201155 C175.543162,59.3804813 175.212927,59.4600702 174.877941,59.4600702 C174.603537,59.4600702 174.354079,59.4125545 174.126003,59.3187108 C173.899115,59.2236792 173.71618,59.0775681 173.579572,58.8791897 C173.442964,58.6808113 173.374066,58.4325413 173.374066,58.1355676 C173.374066,57.8350303 173.447715,57.578445 173.593827,57.3669998 C173.739938,57.1555545 173.946631,56.969055 174.21272,56.8086892 C174.478808,56.6483234 174.835177,56.4748908 175.283013,56.2860156 C175.359038,56.2551303 175.547913,56.1779171 175.848451,56.0543761 C176.148988,55.930835 176.366373,55.807294 176.499417,55.6849408 C176.632461,55.5602119 176.698983,55.4259798 176.698983,55.2798687 L176.698983,54.5457498 C176.698983,54.0860345 176.603952,53.7724303 176.412701,53.6061251" id="Fill-130" fill="#FFFFFF"></path>
            </g>
        </g>
    </g>
</svg>